<?xml version="1.0" encoding="utf-8"?>
<!-- Generator: Adobe Illustrator 23.1.1, SVG Export Plug-In . SVG Version: 6.00 Build 0)  -->
<svg version="1.1" id="Layer_1" xmlns="http://www.w3.org/2000/svg" xmlns:xlink="http://www.w3.org/1999/xlink" x="0px" y="0px"
	 viewBox="0 0 170 170" style="enable-background:new 0 0 170 170;" xml:space="preserve">
<style type="text/css">
	.st0{filter:url(#a);}
	.st1{fill:none;stroke:#FF9900;stroke-width:2;stroke-linejoin:round;}
	.st2{fill:none;stroke:#008C9A;stroke-width:2;stroke-linejoin:round;}
</style>
<filter  filterUnits="userSpaceOnUse" height="170" id="a" width="170" x="0" y="0">
	<feOffset  dy="3" input="SourceAlpha"></feOffset>
	<feGaussianBlur  result="b" stdDeviation="15"></feGaussianBlur>
	<feFlood  flood-color="#008c9a" flood-opacity="0.302"></feFlood>
	<feComposite  in2="b" operator="in"></feComposite>
	<feComposite  in="SourceGraphic" operator="over"></feComposite>
</filter>
<g transform="translate(-364 -973)">
	<g transform="matrix(1, 0, 0, 1, 364, 973)" class="st0">
	</g>
	<g transform="translate(40.001 -2)">
		<path class="st1" d="M412,1076h16c0.6,0,1,0.4,1,1v2c0,0.6-0.4,1-1,1h-16c-0.6,0-1-0.4-1-1v-2C411,1076.4,411.4,1076,412,1076z"/>
		<line class="st1" x1="408" y1="1080" x2="432" y2="1080"/>
		<path class="st1" d="M424,1072v-17h-8v17h-2v4h12v-4H424z"/>
		<path class="st1" d="M423,1047l-1,4h-4l-1-4h-4v8h14v-8H423z"/>
		<line class="st1" x1="416" y1="1072" x2="422" y2="1072"/>
		<line class="st1" x1="413" y1="1059" x2="427" y2="1059"/>
		<path class="st2" d="M416,1044v-1c0-4-4-9-9-9h-2c-5,0-9,5-9,9v6c0,3.9,2.5,8.8,6,10v2c0,0-11.5,4.3-14,6c-1.7,1.1-2.9,3-3,5v9"/>
		<line class="st2" x1="393" y1="1081" x2="393" y2="1072"/>
	</g>
</g>
</svg>
