<?xml version="1.0" encoding="utf-8"?>
<!-- Generator: Adobe Illustrator 23.1.1, SVG Export Plug-In . SVG Version: 6.00 Build 0)  -->
<svg version="1.1" id="Layer_1" xmlns="http://www.w3.org/2000/svg" xmlns:xlink="http://www.w3.org/1999/xlink" x="0px" y="0px"
	 viewBox="0 0 170 170" style="enable-background:new 0 0 170 170;" xml:space="preserve">
<style type="text/css">
	.st0{fill:none;}
	.st1{fill:#FF9900;}
	.st2{fill:#118C9A;}
</style>
<g>
	<circle class="st0" cx="85" cy="82" r="40"/>
</g>
<path class="st1" d="M88.6,105.9c-0.6,0-1.1-0.5-1.1-1.1v-46c0-0.6,0.5-1.1,1.1-1.1h13.2c0.6,0,1.1,0.5,1.1,1.1v46
	c0,0.6-0.5,1.1-1.1,1.1L88.6,105.9z M89.7,103.7h11V59.9h-11v4.4h2.2c0.6-0.1,1.1,0.4,1.2,1s-0.4,1.1-1,1.2c-0.1,0-0.1,0-0.2,0h-2.2
	v4.4h4.4c0.6-0.1,1.1,0.4,1.2,1s-0.4,1.1-1,1.2c-0.1,0-0.1,0-0.2,0h-4.4v4.4h2.2c0.6-0.1,1.1,0.4,1.2,1s-0.4,1.1-1,1.2
	c-0.1,0-0.1,0-0.2,0h-2.2V84h4.4c0.6-0.1,1.1,0.4,1.2,1s-0.4,1.1-1,1.2c-0.1,0-0.1,0-0.2,0h-4.4v4.4h2.2c0.6-0.1,1.1,0.4,1.2,1
	s-0.4,1.1-1,1.2c-0.1,0-0.1,0-0.2,0h-2.2v4.4h4.4c0.6-0.1,1.1,0.4,1.2,1s-0.4,1.1-1,1.2c-0.1,0-0.1,0-0.2,0h-4.4V103.7z"/>
<path class="st2" d="M70.2,105.9c-1.8,0-3.3-1.5-3.3-3.3V67.5c0-0.2,0.1-0.4,0.2-0.6l0-0.1l3.2-4.3l0.2-0.3l3.1-4.2
	c0.4-0.5,1.1-0.6,1.6-0.2c0.1,0,0.1,0.1,0.2,0.2l3.1,4.2l0.2,0.3l3.2,4.3l0,0.1c0.1,0.2,0.2,0.4,0.2,0.6v35.1c0,1.8-1.5,3.3-3.3,3.3
	H70.2z M69.1,102.6c0,0.6,0.5,1.1,1.1,1.1H79c0.6,0,1.1-0.5,1.1-1.1v-3.3h-11L69.1,102.6z M75.7,97.1h4V71.3c-1.2,0.8-2.8,0.8-4,0
	V97.1z M69.1,97.1h4.4V71.3c-1.3,0.8-3,0.8-4.4,0V97.1z M75.7,67.5c0.1,1.2,1,2.1,2.2,2.2c1.1-0.1,2-0.8,2.1-1.9l-2.7-3.6h-5.4
	l-2.7,3.6c0.2,1.1,1.1,1.8,2.1,1.9c1.2-0.1,2.1-1,2.2-2.2c0.1-0.6,0.6-1.1,1.2-1C75.2,66.6,75.7,67,75.7,67.5L75.7,67.5z M73.6,62
	h2.1l-1.1-1.4L73.6,62z"/>
</svg>
