<?xml version="1.0" encoding="utf-8"?>
<!-- Generator: Adobe Illustrator 23.1.1, SVG Export Plug-In . SVG Version: 6.00 Build 0)  -->
<svg version="1.1" id="Layer_1" xmlns="http://www.w3.org/2000/svg" xmlns:xlink="http://www.w3.org/1999/xlink" x="0px" y="0px"
	 viewBox="0 0 170 170" style="enable-background:new 0 0 170 170;" xml:space="preserve">
<style type="text/css">
	.st0{fill:none;}
	.st1{clip-path:url(#SVGID_2_);fill:#FF9900;}
	.st2{fill:#FFFFFF;}
	.st3{clip-path:url(#SVGID_4_);fill:#118C9A;}
</style>
<g transform="matrix(1, 0, 0, 1, 364, 1082)">
	<circle class="st0" cx="-279" cy="-1000" r="40"/>
</g>
<g>
	<defs>
		<path id="SVGID_1_" d="M85.3,57.9c-9,0-16.3,7.2-16.3,16.2c0,4.7,1.8,9.7,5.4,14.9c-0.9,0.7-1.4,1.7-1.4,2.8c0,2,1.6,3.5,3.6,3.5
			h2.5v6.1c0,2.8,2.3,5.1,5.1,5.1h2c2.8,0,5.1-2.2,5.1-5.1v-6.1H94c2,0,3.6-1.6,3.6-3.5c0-1.1-0.5-2.1-1.4-2.8
			c3.6-5.2,5.4-10.2,5.4-14.9C101.6,65.1,94.3,57.9,85.3,57.9z M81.2,99.3l0.4-0.1l7.8-2.9v2L89,98.4l-7.8,2.9L81.2,99.3z
			 M81.2,97.3v-2h5.3L81.2,97.3z M86.3,104.4h-2c-0.9,0-1.8-0.4-2.4-1.2l7.5-2.8v0.9C89.4,103.1,88,104.4,86.3,104.4L86.3,104.4z
			 M94,93.3H76.7c-0.8,0-1.5-0.7-1.5-1.5c0-0.7,0.5-1.3,1.1-1.4h0l0.4-0.1H94c0.1,0,0.3,0.1,0.4,0.1l0.2,0c0.8,0.3,1.1,1.2,0.8,2
			C95.1,92.9,94.6,93.3,94,93.3L94,93.3z M86.3,75.1v-1c0-1.1,0.9-2,2-2.1s2,0.9,2.1,2c0,1.1-0.9,2-2,2.1c0,0,0,0,0,0h-2V75.1z
			 M84.3,75.1v1h-2c-1.1,0-2-0.9-2-2c0-1.1,0.9-2,2-2c1.1,0,2,0.9,2,2V75.1z"/>
	</defs>
	<clipPath id="SVGID_2_">
		<use xlink:href="#SVGID_1_"  style="overflow:visible;"/>
	</clipPath>
	<path class="st1" d="M103.1,60.8c-4.1-25.3-54.6-18.3-31.3,28c-1.5,0.5,27.1,0.2,25.6,0C107.1,70.4,105.1,73.3,103.1,60.8z"/>
</g>
<path class="st2" d="M86,88.2V78.1h2c2.2,0,4-1.8,4-4s-1.8-4-4-4c-1.2,0-2.3,0.5-3.1,1.4c-1.5-1.7-4-1.9-5.7-0.5
	c-1.7,1.5-1.9,4-0.5,5.7c0.8,0.9,1.9,1.4,3.1,1.4h2v10.1h-7.6l-0.3,0c-3.5-5-5.3-9.8-5.3-14.2c0.1-7.9,6.6-14.2,14.4-14.1
	c7.8,0.1,14,6.4,14.1,14.1c0,4.4-1.8,9.1-5.3,14.2l-0.3,0H86z"/>
<g>
	<defs>
		<path id="SVGID_3_" d="M85.3,57.9c-9,0-16.3,7.2-16.3,16.2c0,4.7,1.8,9.7,5.4,14.9c-0.9,0.7-1.4,1.7-1.4,2.8c0,2,1.6,3.5,3.6,3.5
			h2.5v6.1c0,2.8,2.3,5.1,5.1,5.1h2c2.8,0,5.1-2.2,5.1-5.1v-6.1H94c2,0,3.6-1.6,3.6-3.5c0-1.1-0.5-2.1-1.4-2.8
			c3.6-5.2,5.4-10.2,5.4-14.9C101.6,65.1,94.3,57.9,85.3,57.9z M81.2,99.3l0.4-0.1l7.8-2.9v2L89,98.4l-7.8,2.9L81.2,99.3z
			 M81.2,97.3v-2h5.3L81.2,97.3z M86.3,104.4h-2c-0.9,0-1.8-0.4-2.4-1.2l7.5-2.8v0.9C89.4,103.1,88,104.4,86.3,104.4L86.3,104.4z
			 M94,93.3H76.7c-0.8,0-1.5-0.7-1.5-1.5c0-0.7,0.5-1.3,1.1-1.4h0l0.4-0.1H94c0.1,0,0.3,0.1,0.4,0.1l0.2,0c0.8,0.3,1.1,1.2,0.8,2
			C95.1,92.9,94.6,93.3,94,93.3L94,93.3z M86.3,75.1v-1c0-1.1,0.9-2,2-2.1s2,0.9,2.1,2c0,1.1-0.9,2-2,2.1c0,0,0,0,0,0h-2V75.1z
			 M84.3,75.1v1h-2c-1.1,0-2-0.9-2-2c0-1.1,0.9-2,2-2c1.1,0,2,0.9,2,2V75.1z"/>
	</defs>
	<clipPath id="SVGID_4_">
		<use xlink:href="#SVGID_3_"  style="overflow:visible;"/>
	</clipPath>
	<rect x="39.3" y="89" class="st3" width="103.5" height="25.5"/>
</g>
</svg>
