<?xml version="1.0" encoding="utf-8"?>
<!-- Generator: Adobe Illustrator 23.1.1, SVG Export Plug-In . SVG Version: 6.00 Build 0)  -->
<svg version="1.1" id="Layer_1" xmlns="http://www.w3.org/2000/svg" xmlns:xlink="http://www.w3.org/1999/xlink" x="0px" y="0px"
	 viewBox="0 0 170 170" style="enable-background:new 0 0 170 170;" xml:space="preserve">
<style type="text/css">
	.st0{fill:none;}
	.st1{fill:#008C9A;}
	.st2{fill:#FF9900;}
	.st3{fill:none;stroke:#008C9A;stroke-width:2;stroke-linejoin:round;}
	.st4{fill:none;stroke:#008C9A;stroke-width:2;}
</style>
<g transform="translate(-364 -1300)">
	<g transform="matrix(1, 0, 0, 1, 364, 1300)">
		<circle class="st0" cx="85" cy="82" r="40"/>
	</g>
	<g transform="translate(40 -1)">
		<path class="st1" d="M409,1407h-19c-2.8,0-5-2.2-5-5v-34c0-0.3,0.1-0.5,0.3-0.7l8-8c0.2-0.2,0.4-0.3,0.7-0.3h24c2.8,0,5,2.2,5,5
			v12h-2v-12c0-1.7-1.3-3-3-3h-23.6l-7.4,7.4v33.6c0,1.7,1.3,3,3,3h19V1407z"/>
		<path class="st1" d="M394,1369h-8v-2h7v-7h2v8C395,1368.6,394.6,1369,394,1369z"/>
		<path class="st2" d="M404,1395c-0.2,0-0.3,0-0.4-0.1l-6.9-3.4c-1-0.5-1.7-1.6-1.7-2.7V1376c0-1.7,1.3-3,3-3h12c1.7,0,3,1.3,3,3
			v12.8c0,1.1-0.6,2.2-1.7,2.7l0,0l-6.9,3.5C404.3,1395,404.2,1395,404,1395z M398,1375c-0.6,0-1,0.4-1,1v12.8
			c0,0.4,0.2,0.7,0.6,0.9l6.4,3.2l6.4-3.2c0.3-0.2,0.6-0.5,0.6-0.9V1376c0-0.6-0.4-1-1-1H398z"/>
		<path class="st2" d="M402,1387c-0.3,0-0.5-0.1-0.7-0.3l-2-2l1.4-1.4l1.3,1.3l5.3-5.3l1.4,1.4l-6,6
			C402.5,1386.9,402.3,1387,402,1387z"/>
		<path class="st3" d="M432,1407v-6c0,0,0-2-3-3c-1.7-0.6-3.4-1.2-5-2v-1.3c2.4-0.8,4-3.1,4-5.7v-3c0-3.3-2.7-6-6-6s-6,2.7-6,6v3
			c0,2.5,1.6,4.8,4,5.7v1.3c-1.6,0.8-3.3,1.4-5,2c-3,1-3,3-3,3v6"/>
		<path class="st4" d="M417,1407v-5"/>
		<path class="st4" d="M427,1407v-5"/>
	</g>
</g>
</svg>
