<?xml version="1.0" encoding="utf-8"?>
<!-- Generator: Adobe Illustrator 23.1.1, SVG Export Plug-In . SVG Version: 6.00 Build 0)  -->
<svg version="1.1" id="Layer_1" xmlns="http://www.w3.org/2000/svg" xmlns:xlink="http://www.w3.org/1999/xlink" x="0px" y="0px"
	 viewBox="0 0 170 170" style="enable-background:new 0 0 170 170;" xml:space="preserve">
<style type="text/css">
	.st0{fill:none;}
	.st1{fill:none;stroke:#008088;stroke-width:2;stroke-linejoin:round;}
	.st2{fill:none;stroke:#FF9900;stroke-width:2;stroke-linejoin:round;}
</style>
<g transform="translate(-998 -1009)">
	<g transform="matrix(1, 0, 0, 1, 998, 1009)">
		<circle class="st0" cx="85" cy="82" r="40"/>
	</g>
	<circle class="st1" cx="1070" cy="1096" r="15"/>
	<line class="st1" x1="1088" y1="1078" x2="1080" y2="1086"/>
	<circle class="st2" cx="1093" cy="1073" r="8"/>
	<line class="st1" x1="1092" y1="1104" x2="1084" y2="1101"/>
	<circle class="st2" cx="1096" cy="1106" r="5"/>
	<path class="st1" d="M1080.4,1107L1080.4,1107c0,0,0-2-3-3c-1.7-0.6-3.4-1.2-5-2v-1.3c2.4-0.8,4-3.1,4-5.7v-3c0-3.3-2.7-6-6-6
		s-6,2.7-6,6v3c0,2.5,1.6,4.8,4,5.7v1.3c-1.6,0.8-3.3,1.4-5,2c-3,1-3,3-3,3l0,0"/>
	<path class="st2" d="M1089.4,1073c0-2.2,1.8-4,4-4"/>
</g>
</svg>
