<?xml version="1.0" encoding="utf-8"?>
<!-- Generator: Adobe Illustrator 23.1.1, SVG Export Plug-In . SVG Version: 6.00 Build 0)  -->
<svg version="1.1" id="Layer_1" xmlns="http://www.w3.org/2000/svg" xmlns:xlink="http://www.w3.org/1999/xlink" x="0px" y="0px"
	 viewBox="0 0 170 170" style="enable-background:new 0 0 170 170;" xml:space="preserve">
<style type="text/css">
	.st0{clip-path:url(#SVGID_2_);fill:#0E8088;}
	.st1{clip-path:url(#SVGID_2_);}
	.st2{clip-path:url(#SVGID_4_);fill:#FF9900;}
	.st3{clip-path:url(#SVGID_4_);}
</style>
<g>
	<defs>
		<path id="SVGID_1_" d="M103.9,67.1h-5.1v-3.2c0-1.6-1.3-3-3-3H63c-1.6,0-3,1.3-3,3v30.8c0,1.6,1.3,3,3,3h21.5v7.1
			c0,2.8,2.3,5.1,5.1,5.1h14.3c2.8,0,5.1-2.3,5.1-5.1V72.1C109,69.4,106.7,67.1,103.9,67.1z M84.5,81.4h-2v-6.1h2V81.4z M86.5,82.4
			v-5.1h20.4v22.5H86.5V82.4z M107,72.2v3.1H86.6v-3.1c0-1.7,1.4-3.1,3.1-3.1H104C105.6,69.2,107,70.5,107,72.2L107,72.2z M95.7,63
			c0.6,0,1,0.5,1,1v3.1h-7.1c-1.6,0-3.1,0.8-4.1,2H62V64c0-0.6,0.5-1,1-1H95.7z M63,95.7c-0.5,0-0.9-0.4-0.9-0.9V71.2h22.6
			c-0.1,0.7-0.1,1.4-0.1,2h-3.1c-0.6,0-1,0.5-1,1l0,0v8.2c0,0.6,0.5,1,1,1l0,0h3.1v12.2H63V95.7z M103.9,108H89.6
			c-1.7,0-3.1-1.4-3.1-3.1v-3.1h20.4v3.1C107,106.6,105.6,108,103.9,108L103.9,108z"/>
	</defs>
	<clipPath id="SVGID_2_">
		<use xlink:href="#SVGID_1_"  style="overflow:visible;"/>
	</clipPath>
	<polygon class="st0" points="113,66 83.5,66 83.5,108.9 43.3,106.1 48.8,57.3 106.1,54.3 	"/>
	<g transform="matrix(1, 0, 0, 1, 998, 1009)" class="st1">
	</g>
</g>
<g>
	<defs>
		<path id="SVGID_3_" d="M103.9,67.1h-5.1v-3.2c0-1.6-1.3-3-3-3H63c-1.6,0-3,1.3-3,3v30.8c0,1.6,1.3,3,3,3h21.5v7.1
			c0,2.8,2.3,5.1,5.1,5.1h14.3c2.8,0,5.1-2.3,5.1-5.1V72.1C109,69.4,106.7,67.1,103.9,67.1z M84.5,81.4h-2v-6.1h2V81.4z M86.5,82.4
			v-5.1h20.4v22.5H86.5V82.4z M107,72.2v3.1H86.6v-3.1c0-1.7,1.4-3.1,3.1-3.1H104C105.6,69.2,107,70.5,107,72.2L107,72.2z M95.7,63
			c0.6,0,1,0.5,1,1v3.1h-7.1c-1.6,0-3.1,0.8-4.1,2H62V64c0-0.6,0.5-1,1-1H95.7z M63,95.7c-0.5,0-0.9-0.4-0.9-0.9V71.2h22.6
			c-0.1,0.7-0.1,1.4-0.1,2h-3.1c-0.6,0-1,0.5-1,1l0,0v8.2c0,0.6,0.5,1,1,1l0,0h3.1v12.2H63V95.7z M103.9,108H89.6
			c-1.7,0-3.1-1.4-3.1-3.1v-3.1h20.4v3.1C107,106.6,105.6,108,103.9,108L103.9,108z"/>
	</defs>
	<clipPath id="SVGID_4_">
		<use xlink:href="#SVGID_3_"  style="overflow:visible;"/>
	</clipPath>
	<path class="st2" d="M109,75.2v-3.4c0,0-0.4-4.5-5.1-4.7H89.3c0,0-4,0.3-4.6,4.1l-0.2,34c0,0,0.3,4.2,4.8,4.7h15
		c0,0,4.2-0.3,4.7-4.8V75.2z"/>
	<g transform="matrix(1, 0, 0, 1, 998, 1009)" class="st3">
	</g>
</g>
</svg>
