<?xml version="1.0" encoding="utf-8"?>
<!-- Generator: Adobe Illustrator 23.1.1, SVG Export Plug-In . SVG Version: 6.00 Build 0)  -->
<svg version="1.1" id="Layer_1" xmlns="http://www.w3.org/2000/svg" xmlns:xlink="http://www.w3.org/1999/xlink" x="0px" y="0px"
	 viewBox="0 0 170 170" style="enable-background:new 0 0 170 170;" xml:space="preserve">
<style type="text/css">
	.st0{fill:none;}
	.st1{fill:none;stroke:#FF9900;stroke-width:2;stroke-linejoin:round;}
	.st2{fill:none;stroke:#008C9A;stroke-width:2;stroke-linejoin:round;}
</style>
<g transform="translate(-962 -1192)">
	<g transform="matrix(1, 0, 0, 1, 962, 1192)">
		<circle class="st0" cx="85" cy="82" r="40"/>
	</g>
	<path class="st1" d="M1055,1282v-18c0-1.1,0.9-2,2-2s2,0.9,2,2v7"/>
	<path class="st1" d="M1059,1277v-6c0-1.1,0.9-2,2-2s2,0.9,2,2v1"/>
	<path class="st1" d="M1063,1277v-5c0-1.1,0.9-2,2-2s2,0.9,2,2v1"/>
	<path class="st1" d="M1067,1277v-4c0-1.1,0.9-2,2-2s2,0.9,2,2v14l-3,3"/>
	<path class="st1" d="M1054,1290l-3-3v-7c0-2.2,1.8-4,4-4"/>
	<path class="st2" d="M1048,1298h-21c-1.1,0-2-0.9-2-2v-38l6-6h26c1.1,0,2,0.9,2,2v5"/>
	<path class="st2" d="M1031,1252v6h-6"/>
	<path class="st2" d="M1051,1274c0-5-4-9-9-9s-9,4-9,9s4,9,9,9l0,0"/>
	<path class="st2" d="M1038,1275l2,2l6-6"/>
	<path class="st1" d="M1068,1290h1c1.1,0,2,0.9,2,2v6h-20v-6c0-1.1,0.9-2,2-2H1068z"/>
	<line class="st1" x1="1054" y1="1294" x2="1056" y2="1294"/>
</g>
</svg>
