<?xml version="1.0" encoding="utf-8"?>
<!-- Generator: Adobe Illustrator 23.1.1, SVG Export Plug-In . SVG Version: 6.00 Build 0)  -->
<svg version="1.1" id="Layer_1" xmlns="http://www.w3.org/2000/svg" xmlns:xlink="http://www.w3.org/1999/xlink" x="0px" y="0px"
	 viewBox="0 0 170 170" style="enable-background:new 0 0 170 170;" xml:space="preserve">
<style type="text/css">
	.st0{fill:none;}
	.st1{fill:none;stroke:#1B8C9A;stroke-width:2;stroke-linejoin:round;}
	.st2{fill:none;stroke:#FF9900;stroke-width:2;stroke-linejoin:round;}
</style>
<g transform="translate(-962 -1300)">
	<g transform="matrix(1, 0, 0, 1, 962, 1300)">
		<circle class="st0" cx="85" cy="82" r="40"/>
	</g>
	<path class="st1" d="M1069.9,1383v-5c0-0.6-0.4-1-1-1h-4.7c-0.4-1.3-0.9-2.5-1.5-3.7l3.3-3.3c0.4-0.4,0.4-1,0-1.4l-5.7-5.7
		c-0.4-0.4-1-0.4-1.4,0l-3.3,3.3c-1.2-0.6-2.4-1.2-3.7-1.5v-4.7c0-0.6-0.4-1-1-1h-8c-0.6,0-1,0.4-1,1v4.7c-1.3,0.4-2.5,0.9-3.7,1.5
		l-3.3-3.3c-0.4-0.4-1-0.4-1.4,0l-5.7,5.7c-0.4,0.4-0.4,1,0,1.4l3.3,3.3c-0.6,1.2-1.2,2.4-1.5,3.7h-4.7c-0.6,0-1,0.4-1,1v8
		c0,0.6,0.4,1,1,1h4.7c0.4,1.3,0.9,2.5,1.5,3.7l-3.3,3.3c-0.4,0.4-0.4,1,0,1.4l5.7,5.7c0.4,0.4,1,0.4,1.4,0l3.3-3.3
		c1.2,0.6,2.4,1.2,3.7,1.5v4.7c0,0.6,0.4,1,1,1h4"/>
	<path class="st2" d="M1069.9,1406v-5c0,0,0-2-3-3c-1.7-0.6-3.4-1.2-5-2v-1.3c2.4-0.8,4-3.1,4-5.7v-3c0-3.3-2.7-6-6-6s-6,2.7-6,6v3
		c0,2.5,1.6,4.8,4,5.7v1.3c-1.6,0.8-3.3,1.4-5,2c-3,1-3,3-3,3v5"/>
	<path class="st2" d="M1046.9,1368.8v13.2l-8.1,7.7"/>
</g>
</svg>
