<?xml version="1.0" encoding="utf-8"?>
<!-- Generator: Adobe Illustrator 24.2.1, SVG Export Plug-In . SVG Version: 6.00 Build 0)  -->
<svg version="1.1" id="Layer_1" xmlns="http://www.w3.org/2000/svg" xmlns:xlink="http://www.w3.org/1999/xlink" x="0px" y="0px"
	 viewBox="0 0 1500 406.43" enable-background="new 0 0 1500 406.43" xml:space="preserve">
<g>
	<g id="Background">
		<g>
			<defs>
				<rect id="SVGID_1_" x="-7" y="-94.48" width="1507" height="500"/>
			</defs>
			<clipPath id="SVGID_2_">
				<use xlink:href="#SVGID_1_"  overflow="visible"/>
			</clipPath>
			<g clip-path="url(#SVGID_2_)">
				<ellipse fill="#CDAB2C" cx="749.79" cy="297.12" rx="1205.6" ry="259.4"/>
				
					<ellipse transform="matrix(0.9991 -0.0434 0.0434 0.9991 -13.492 32.8414)" fill="#E8C321" cx="749.73" cy="327.2" rx="1192.52" ry="231.86"/>
			</g>
		</g>
	</g>
	<g id="Objects">
		<g id="CVs">
			
				<rect x="543.73" y="106.7" transform="matrix(0.866 -0.5 0.5 0.866 -12.4621 327.2805)" opacity="0.33" fill="#333333" enable-background="new    " width="121.51" height="160.38"/>
			
				<rect x="543.42" y="105.98" transform="matrix(0.816 -0.578 0.578 0.816 2.0503 381.5999)" fill="#EFE5D6" width="114.18" height="163.19"/>
			<line fill="none" stroke="#DDD3C7" stroke-width="3" stroke-miterlimit="10" x1="583.5" y1="152.48" x2="607.15" y2="135.72"/>
			<line fill="none" stroke="#DDD3C7" stroke-width="3" stroke-miterlimit="10" x1="567.37" y1="222.44" x2="643.52" y2="168.5"/>
			<line fill="none" stroke="#DDD3C7" stroke-width="3" stroke-miterlimit="10" x1="572.26" y1="229.34" x2="648.41" y2="175.41"/>
			<line fill="none" stroke="#DDD3C7" stroke-width="3" stroke-miterlimit="10" x1="577.63" y1="236.93" x2="653.78" y2="183"/>
			<line fill="none" stroke="#DDD3C7" stroke-width="3" stroke-miterlimit="10" x1="589.36" y1="253.49" x2="636.71" y2="219.96"/>
			<line fill="none" stroke="#DDD3C7" stroke-width="3" stroke-miterlimit="10" x1="594.74" y1="261.08" x2="670.89" y2="207.15"/>
			<line fill="none" stroke="#DDD3C7" stroke-width="3" stroke-miterlimit="10" x1="599.63" y1="267.98" x2="675.78" y2="214.05"/>
			
				<rect x="534.2" y="139.29" transform="matrix(0.816 -0.578 0.578 0.816 4.7495 352.3467)" fill="none" stroke="#DDD3C7" stroke-width="7" stroke-miterlimit="10" width="43.39" height="58.85"/>
			<line fill="none" stroke="#DDD3C7" stroke-width="5" stroke-miterlimit="10" x1="571.77" y1="135.91" x2="604.18" y2="112.96"/>
			<line fill="none" stroke="#DDD3C7" stroke-width="5" stroke-miterlimit="10" x1="577.63" y1="144.19" x2="610.04" y2="121.24"/>
			<line fill="none" stroke="#DDD3C7" stroke-width="5" stroke-miterlimit="10" x1="561.99" y1="214.85" x2="609.33" y2="181.32"/>
			<path fill="#DDD3C7" d="M573.42,192.35l15.53-11c-2.6-3.3-5.3-4.44-7.77-4.49c-2-3-6-6.95-6.87-8.5
				c-1.26-2.14-14.25-20.85-21.2-19s-8,4.12-8,4.12c-4.32,2.63-6.63,7.62-5.83,12.62c0.74,6.22,3.2,12.1,7.1,17
				c1.81,2.19,4.85,6.72,6.88,9.83c1.17,1.69,2.02,3.59,2.5,5.59c0,0,0.31,0,0.78,0c0.14,1.69,0.6,3.33,1.36,4.84l15.52-11V192.35z"
				/>
			
				<rect x="778.32" y="134.01" transform="matrix(0.4187 -0.9081 0.9081 0.4187 326.3564 892.0146)" opacity="0.33" fill="#333333" enable-background="new    " width="163.19" height="114.18"/>
			
				<rect x="770.29" y="133.02" transform="matrix(0.4647 -0.8855 0.8855 0.4647 287.6914 856.0934)" fill="#EFE5D6" width="163.19" height="114.18"/>
			
				<rect x="819.03" y="120.11" transform="matrix(0.4647 -0.8855 0.8855 0.4647 328.6254 827.1965)" fill="none" stroke="#DDD3C7" stroke-width="7" stroke-miterlimit="10" width="58.85" height="43.39"/>
			<line fill="none" stroke="#DDD3C7" stroke-width="5" stroke-miterlimit="10" x1="884.89" y1="141.05" x2="920.06" y2="159.5"/>
			<line fill="none" stroke="#DDD3C7" stroke-width="5" stroke-miterlimit="10" x1="880.17" y1="150.03" x2="915.34" y2="168.49"/>
			<line fill="none" stroke="#DDD3C7" stroke-width="3" stroke-miterlimit="10" x1="875.46" y1="159.02" x2="901.12" y2="172.48"/>
			<path fill="#DDD3C7" d="M818.68,159.4c0,0,8.49-11.06,14.36-9.2l5.88,1.85l2.34-3.05c0,0,0.83-4.31-0.4-6.54s-4.9-4.05-3.34-6
				c1.56-1.95,1.93-6.76,3-9.05c1.07-2.29,7.4-7.33,11.1-6.13s12.09,10.15,13,7c0.91-3.15,3.9,5,3.06,5.54
				c-2.07,1.96-3.76,4.28-5,6.85c-0.75,2.09-1.08,7-5,8.9c-3.14,1.72-6.09,3.76-8.82,6.08c0,0,7.14,3.66,7.4,6
				c0.26,2.34-2.31,16.28-2.31,16.28L818.68,159.4z"/>
			
				<rect x="815.16" y="209.46" transform="matrix(0.9416 -0.3366 0.3366 0.9416 -37.875 317.487)" opacity="0.33" fill="#333333" enable-background="new    " width="163.19" height="117.05"/>
			
				<rect x="809.61" y="204.52" transform="matrix(0.9572 -0.2894 0.2894 0.9572 -37.5727 269.077)" fill="#FDFBF5" width="163.19" height="114.18"/>
			<path fill="#DCD8D4" d="M890.25,217.8c0,0,9.74-3.39,13.22,2.32l3.49,5.71l6.07,0.1c0,0,2.42-5.1,2.31-5.93
				c0.08-3.72,3.07-6.73,6.79-6.84c6.2-0.58,8.85-1.24,10.61,0.27c1.31,1.02,2.77,1.82,4.34,2.36c0,0,0.95,3.69,1.51,6.27
				c0.56,2.58-0.8,8.85-1.8,10.24s-1.86,4.79-6.18,4.8c-4.32,0.01-8.47,1.55-9.53,0.6s-4.68-2.05-4.68-2.05l-4.82,2.37
				c0,0,0.48,6.42-3.29,9.09c-2.47,1.66-5.26,2.76-8.2,3.22L890.25,217.8z"/>
			
				<rect x="893.82" y="203.6" transform="matrix(0.9572 -0.2894 0.2894 0.9572 -25.6935 276.7943)" fill="none" stroke="#DCD8D4" stroke-width="7" stroke-miterlimit="10" width="58.85" height="43.39"/>
			<line fill="none" stroke="#DCD8D4" stroke-width="5" stroke-miterlimit="10" x1="949.33" y1="250.74" x2="960.83" y2="288.76"/>
			<line fill="none" stroke="#DCD8D4" stroke-width="5" stroke-miterlimit="10" x1="939.62" y1="253.68" x2="951.11" y2="291.7"/>
			<line fill="none" stroke="#DCD8D4" stroke-width="5" stroke-miterlimit="10" x1="834.64" y1="237.15" x2="860.09" y2="321.34"/>
			<line fill="none" stroke="#DCD8D4" stroke-width="3" stroke-miterlimit="10" x1="823.08" y1="238.31" x2="848.53" y2="322.5"/>
			<line fill="none" stroke="#DCD8D4" stroke-width="3" stroke-miterlimit="10" x1="813.19" y1="239.26" x2="838.65" y2="323.45"/>
			<line fill="none" stroke="#DCD8D4" stroke-width="3" stroke-miterlimit="10" x1="929.91" y1="256.62" x2="938.29" y2="284.36"/>
			
				<rect x="649.64" y="175.31" transform="matrix(0.9924 -0.1233 0.1233 0.9924 -26.5712 89.1667)" opacity="0.33" fill="#333333" enable-background="new    " width="115.5" height="168.06"/>
			
				<rect x="641.3" y="176.58" transform="matrix(0.9852 -0.1716 0.1716 0.9852 -33.9407 123.6617)" fill="#FDFBF5" width="114.18" height="163.19"/>
			
				<rect x="644.51" y="192.55" transform="matrix(0.9852 -0.1716 0.1716 0.9852 -28.2078 117.6037)" fill="none" stroke="#DCD8D4" stroke-width="7" stroke-miterlimit="10" width="43.39" height="58.85"/>
			<line fill="none" stroke="#DCD8D4" stroke-width="5" stroke-miterlimit="10" x1="660.01" y1="312.93" x2="717.16" y2="302.98"/>
			<line fill="none" stroke="#DCD8D4" stroke-width="3" stroke-miterlimit="10" x1="651.88" y1="266.28" x2="709.04" y2="256.33"/>
			<line fill="none" stroke="#DCD8D4" stroke-width="3" stroke-miterlimit="10" x1="653.48" y1="275.44" x2="745.41" y2="259.44"/>
			<line fill="none" stroke="#DCD8D4" stroke-width="3" stroke-miterlimit="10" x1="654.93" y1="283.77" x2="746.86" y2="267.77"/>
			<line fill="none" stroke="#DCD8D4" stroke-width="3" stroke-miterlimit="10" x1="656.52" y1="292.94" x2="748.46" y2="276.93"/>
			<line fill="none" stroke="#DCD8D4" stroke-width="3" stroke-miterlimit="10" x1="661.6" y1="322.1" x2="753.53" y2="306.09"/>
			<line fill="none" stroke="#DCD8D4" stroke-width="3" stroke-miterlimit="10" x1="663.05" y1="330.43" x2="754.98" y2="314.42"/>
			<path fill="#DCD8D4" d="M653.5,254.07c0,0-1.85-15.63,5.52-16.63c2.33-0.32,4.33-0.72,4.33-0.72l0.15-5.2
				c-0.82,0.66-1.76,1.17-2.77,1.5c-1.2,0.25-6.16-0.83-7.4-1.5s-0.48-1.75,0.48-3.25s-0.28-13.93,2-19.09s10.15-8,15.14-6.59
				c4.99,1.41,9,10.94,9.57,14.18c0.57,3.24,0,7.14,2,9.2s2.19,2,1.12,2.72c-1.07,0.72-7.71,3.19-9.79,2.26l0.74,4.15
				c0,0,7.73-2.38,9.71,0.39c1.98,2.77,6.34,12.11,6.34,12.11L653.5,254.07z"/>
			
				<rect x="644.3" y="101.88" transform="matrix(0.076 -0.9971 0.9971 0.076 523.535 922.4459)" opacity="0.33" fill="#333333" enable-background="new    " width="230.38" height="153.71"/>
		</g>
		<g id="Hands">
			
				<rect x="645.06" y="101.56" transform="matrix(0.076 -0.9971 0.9971 0.076 519.6143 917.5688)" fill="#FFFFFF" width="219.69" height="153.71"/>
			<line fill="none" stroke="#C4BDB6" stroke-width="5" stroke-miterlimit="10" x1="769.53" y1="100.17" x2="822.84" y2="104.23"/>
			<line fill="none" stroke="#C4BDB6" stroke-width="5" stroke-miterlimit="10" x1="768.49" y1="113.79" x2="821.81" y2="117.85"/>
			<line fill="none" stroke="#C4BDB6" stroke-width="3" stroke-miterlimit="10" x1="767.46" y1="127.41" x2="806.36" y2="130.37"/>
			<line fill="none" stroke="#C4BDB6" stroke-width="5" stroke-miterlimit="10" x1="691.58" y1="173.57" x2="769.45" y2="179.5"/>
			<line fill="none" stroke="#C4BDB6" stroke-width="3" stroke-miterlimit="10" x1="690.62" y1="186.05" x2="815.88" y2="195.6"/>
			<line fill="none" stroke="#C4BDB6" stroke-width="3" stroke-miterlimit="10" x1="689.76" y1="197.4" x2="815.02" y2="206.95"/>
			<line fill="none" stroke="#C4BDB6" stroke-width="3" stroke-miterlimit="10" x1="688.81" y1="209.89" x2="814.06" y2="219.43"/>
			<line fill="none" stroke="#C4BDB6" stroke-width="5" stroke-miterlimit="10" x1="686.73" y1="237.13" x2="764.6" y2="243.06"/>
			<line fill="none" stroke="#C4BDB6" stroke-width="3" stroke-miterlimit="10" x1="685.78" y1="249.61" x2="811.04" y2="259.16"/>
			<line fill="none" stroke="#C4BDB6" stroke-width="3" stroke-miterlimit="10" x1="684.92" y1="260.96" x2="810.17" y2="270.51"/>
			
				<rect x="685.28" y="91.33" transform="matrix(0.076 -0.9971 0.9971 0.076 549.6086 834.1692)" fill="#FDFBF5" width="79.23" height="58.41"/>
			<path fill="#CB9768" d="M726.81,95.52c0,0-10.41-1.93-16.77,6.71c-4.44,5.79-6.9,12.87-7,20.17c-0.15,4.6-0.53,9.19-1.14,13.75
				c-0.23,2.36-0.96,4.63-2.13,6.69c0,0,4.84,3.82,6.38,2.35l1.54-1.47c0,0-0.2,2.79,0.87,2.63c1.35-0.27,2.72-0.35,4.09-0.25
				c2,0.15,3.29-2,3.29-2l-0.32,4.25c2.45,1.22,5.09,2.01,7.81,2.31c4,0.31,6.27-0.95,11-1.73c4.73-0.78,3.94-3.12,3.94-3.12
				l1.93-2.7l-0.36,4.69c0,0,1.12,0.21,3.54-1.6c2.42-1.81,0.72-13.08,1.22-15.89c0.5-2.81,2.77-28.9-6.09-32.43
				C729.75,94.35,726.81,95.52,726.81,95.52z"/>
			<path fill="#FCC49D" d="M715.66,148.28c0,0,5.41-3.58,5.21-8.45l7.94,0.61c0,0-1.21,8.47,2,11.57l-7.51,1.27L715.66,148.28z"/>
			<path fill="#D18571" d="M697.21,158.13c0,0,2.4-12.78,15.48-12.07l3.69,0.28c0,0,7.49,6.57,14.47,1.1c0,0,17.9-2.68,17.44,14.58
				L697.21,158.13z"/>
			<path fill="#FCC49D" d="M711.31,115.42c0,0-5.94,25.52,12.83,26.38s16-26.18,16.07-27.32c0.07-1.14-4.4-7.47-4.4-7.47l-9.29-0.71
				l-7.62-0.58l-7.77,7.4L711.31,115.42z"/>
			<path fill="#AB7C54" d="M730.12,120.81c1.1-0.21,2.24-0.24,3.35-0.09c0.93,0.32,2.24,1.46,3,1.47c0.68-0.06,1.17-0.67,1.11-1.34
				c-0.02-0.21-0.1-0.41-0.22-0.59c-0.72-1.17-2.04-1.83-3.41-1.7C732.19,118.57,728.89,120.02,730.12,120.81z"/>
			<path fill="#AB7C54" d="M720.5,120.52c-0.94-0.62-1.97-1.08-3.06-1.37c-1-0.06-2.62,0.5-3.32,0.22c-0.6-0.32-0.83-1.08-0.5-1.68
				c0.1-0.18,0.24-0.34,0.41-0.45c1.12-0.8,2.59-0.9,3.81-0.27C719.5,117.67,721.98,120.27,720.5,120.52z"/>
			<path fill="#4B362D" d="M714.5,123.26c1-0.36,2.08-0.42,3.11-0.16c1.92,0.39,3,0.62,2.63,0.15c-0.43-0.64-1.03-1.13-1.74-1.43
				c-0.55-0.09-0.63-1-0.93-1s-0.82,0.94-1,0.92s-0.86-1.06-1.23-0.84s-0.36,0.77-0.42,1C714.86,122.13,713.59,123.34,714.5,123.26z
				"/>
			<path fill="#F8A082" d="M714.7,125.87c0.16-0.07,3-1.87,4.38-1.16s1.56,3.66,0.81,4.3s-6.58-0.08-7-1.43
				C712.59,126.71,713.25,126.46,714.7,125.87z"/>
			<path fill="#4B362D" d="M735.92,124.89c-0.92-0.5-1.96-0.72-3-0.63c-2,0.1-3,0.17-2.62-0.25c0.52-0.56,1.19-0.96,1.93-1.15
				c0.55,0,0.77-0.89,1.06-0.82s0.67,1,0.82,1.07s1-0.93,1.35-0.65c0.35,0.28,0.23,0.82,0.27,1
				C735.77,123.64,736.8,125.11,735.92,124.89z"/>
			<path fill="#F8A082" d="M735.33,127.44c-0.16-0.09-2.67-2.3-4.16-1.81c-1.49,0.49-2.1,3.38-1.46,4.13
				c0.64,0.75,6.52,0.92,7.16-0.35C737.29,128.59,736.66,128.24,735.33,127.44z"/>
			<path fill="#CB9768" d="M723.5,123.52c0,0-0.91,6.12-1,7.21s-0.23,1.63,1,1.73s2.56,0.54,2.69-0.5s0.32-8.21,0.2-8.56
				s-1-0.58-1.66-0.53C724.07,122.92,723.62,122.66,723.5,123.52z"/>
			<path fill="#D18571" d="M718.95,135.52c1.39,0.72,2.88,1.2,4.43,1.43c1.64,0.12,3.29-0.05,4.88-0.48c0,0,0.67-1-0.14-0.85
				s-1.68-0.78-2.21-1c-0.69-0.16-1.41,0.1-1.85,0.66c0,0-0.58-0.95-1.38-0.91s-1.37,1-2.35,0.77
				C719.35,134.91,718.58,135.15,718.95,135.52z"/>
			<path fill="#CB9768" d="M711.82,104.04c0,0-3.73,5.73-2.49,11.23s-0.86,5.18-0.86,5.18s13.75-0.78,15.87-4.9l-0.29,3.75
				c0,0,4.62,0.58,6.27-2.43s1.38,0.67,1.38,0.67s9.66,0.56,10.49-2.85s2.2-10.45-0.56-11.52s-9.92-4.46-9.92-4.46l-9.37-0.72
				L711.82,104.04z"/>
			
				<rect x="685.28" y="91.33" transform="matrix(0.076 -0.9971 0.9971 0.076 549.6086 834.1692)" fill="none" stroke="#EFE5D6" stroke-width="7" stroke-miterlimit="10" width="79.23" height="58.41"/>
			<g opacity="0.11">
				<polygon fill="#010101" points="887.5,371.17 924,367.55 944,345.53 929.87,327.25 906.5,335.53 883.32,344.43 877.69,349.21 
					877.69,359.03 				"/>
				<path fill="#010101" d="M941.37,342.52c0,0-37.23-48.69-37.69-52.9s-1.83-11.55-1.29-29.77c0.54-18.22-16.36-53.28-21.8-67.55
					c-5.44-14.27-11.78-10.92-11.78-10.92l0,0L865.3,172c-3.51-9.39-11.46-10-11.46-10c-1.06-8.32-5.42-15.87-12.1-20.95
					l-4.84,67.67c0,0-0.59,8.32-3.45,9.64c-2.86,1.32-2.7-4.76-7.21-10.79s-20.59-20.68-31-23.89s-17.58,1.21-19.23,3.57
					s-1,3.35,2.23,5.48c1.39,0.91,4.22,2.81,7.38,4.93c2.64,1.78,5.51,3.7,8,5.31c1.51,1,2.87,1.89,3.9,2.55
					c4.74,3,13.52,23.79,18.33,36.3s8.71,21.93,14,27.25s27.55,18.71,33.65,23.71s15.25,36.85,15.25,36.85l5.26,17.07l5.49,17.82
					c9.22-0.08,18.39-1.33,27.3-3.71C927.37,357.77,937.8,352.32,941.37,342.52z"/>
				<path opacity="0.18" fill="#010101" enable-background="new    " d="M909.5,368.99c6.12,12.66-20-4.5-20-4.5l-5.48-17.79
					l-5.26-17.07c0,0-9.14-31.85-15.25-36.85C863.5,292.78,890.27,329.24,909.5,368.99z"/>
				<path opacity="0.18" fill="#010101" enable-background="new    " d="M836.9,208.72c0,0-0.59,8.32-3.45,9.64
					c-2.86,1.32-2.7-4.76-7.21-10.79c0,0,0,15.6,5.27,18C836.78,227.97,843.4,220.21,836.9,208.72z"/>
				<path fill="#010101" d="M793.57,202.97c-2.45-1.61-5.32-3.53-8-5.31c-3.16-2.12-6-4-7.38-4.93c0,0,1-4.59,8.2-2.36
					s11,5.35,10.84,7.34C797.07,199.7,793.57,202.97,793.57,202.97z"/>
				<path opacity="0.18" fill="#010101" enable-background="new    " d="M839.35,174.52c0,0,3.8,8,3.3,15.07s-4.67,4.13-4.67,4.13
					L839.35,174.52z"/>
				<path opacity="0.18" fill="#010101" enable-background="new    " d="M853.84,161.92c0,0,6.3,34.29,7.82,37s3.16-2.05,1.78-5.86
					S853.84,161.92,853.84,161.92z"/>
				<path opacity="0.18" fill="#010101" enable-background="new    " d="M868.81,181.33c0,0,4.59,21,6.57,21.25
					S869.84,184.05,868.81,181.33z"/>
				<path fill="#010101" d="M883.32,344.42c0,0-13.32,20.1,12.18,15.6s41.57-23.19,39.35-26.14l-2.65-3.51c0,0,11.8,2.65,17.3,8.65
					s54,56,54,56v10.5h-113c0,0-15.08-37-14.79-42.73c0.29-5.73,1.89-19.57,6.59-21.67L883.32,344.42z"/>
				<path fill="#010101" d="M637.85,258.07c0,0-2.87,37.07,27.77,35.46s27.77-11.23,31.6-31.48c0,0,2.87-5.88-6.7-9.4
					C680.95,249.13,651.58,243.71,637.85,258.07z"/>
				<path fill="#010101" d="M772.1,246.36c0,0,9,37.52-21.07,40.77c-30.07,3.25-28.93-7.06-36.07-27.19c0,0-3.79-5.56,4.94-10.7
					C728.63,244.1,756.31,233.84,772.1,246.36z"/>
				<path fill="#010101" d="M768.29,237.64c0,0,31.61-21.43,34.77-21.62s7.26,0,6.38,8.91s-8.77,31.1-9.36,35.85s1,12.53-2.63,12.34
					s-8.92-0.86-5.12-16.36s8.17-29.36,8.17-29.36s-21.64,18.59-23.54,19.92c-1.9,1.33-7.13,7.59-8.69,1.9
					C766.71,243.53,765.87,239.28,768.29,237.64z"/>
				<path fill="#010101" d="M761.91,234.96c-4.15-0.51-14.63-0.23-24.47,1.48s-20.09,11.63-31.75,11.79s-25.61-8.51-49.52-6.1
					c-23.91,2.41-25.14,8.19-25.14,8.19l2.66,14.4c0,0,3,11.84,3.79,15.26c0.79,3.42,3.47,16,19.55,18.21
					c10.52,1.42,31.58,0,36.14-8.54s6-21.33,6.82-23.61s0.57-5.13,5.7-5.13s5.55-1.14,7.61,4s1.87,23.63,19.07,26.2
					c18.21,2.71,31.65-1.45,37.34-6.85c4.53-4.3,4.72-8.08,6-16.12c2.22-13.47,3.35-28.66,3.35-28.66S766.07,235.52,761.91,234.96z
					 M694.02,263.03c-3.42,18.05-0.85,26.62-28.17,28.07c-27.32,1.45-24.76-31.58-24.76-31.58c12.24-12.81,38.42-8,46.95-4.83
					C696.57,257.86,694.02,263.03,694.02,263.03z M750.21,283.93c-25.85,2.79-24.84-6.06-31-23.35c0,0-3.25-4.77,4.24-9.18
					s31.26-13.22,44.82-2.48C768.3,248.92,776.06,281.14,750.21,283.93z"/>
				<polygon fill="#010101" points="564.67,381.54 550.5,381.82 543,393.67 564.67,397.53 592.45,401.03 607.5,401.03 603.5,391.28 
					597.97,389.81 				"/>
				<path fill="#010101" d="M599.65,364.52c-1.78,3.62-2.69,7.6-2.65,11.63c0,6.9,2.65,29.4,2.65,29.4H543c0,0,14.5-24.2,15.5-32.37
					s3.2-10.39,3.2-10.39c0.28-1.71-0.57-14-4.84-26.37s-12-43.64-10.25-48.19s21.63-47.81,23.34-51.22c1.71-3.41,8-6.26,9.39-6.55
					c1.39-0.29,10.57-5.4,13.11-5.4c2.54,0,8.8,4.55,8.8,4.55s12-6,17.36-4.55s10.53,5.58,16.5,9.9c1,0.76,2.16,1.6,3.3,2.48
					c5.39,4.16,11.38,9.21,13.49,10.38c0.92,0.49,1.31,1.61,0.89,2.57c-0.88,1.99-2.54,3.54-4.59,4.27
					c-3.7,1.41-6.45,4.13-17.17-4.34c-10.72-8.47-10.4-7.93-13.56-8.19c-3.16-0.26-10.36,14.12-12,19.64
					c-3.81,13.19-8,54.35-8,54.35l2.1,45L599.65,364.52z"/>
				<path opacity="0.18" fill="#010101" enable-background="new    " d="M599.65,364.52c-1.78,3.62-2.69,7.6-2.65,11.63
					c0,6.9,2.65,29.4,2.65,29.4h-16.9C582.75,405.55,586.06,370.97,599.65,364.52z"/>
				<path fill="#010101" d="M652.79,250.39c1.09,0.1,0.12-2-0.89-2.57c-2.11-1.17-8.1-6.22-13.49-10.38c0,0-3.88,1.85-1.17,4.69
					S642.86,249.52,652.79,250.39z"/>
				<path opacity="0.18" fill="#010101" enable-background="new    " d="M601.25,229.61c0,0-9.68,2.74-11.67,5.35
					s-6.26,36.43-8,38.16s-3.13,1.09-1.42-5c1.71-6.09,6.34-26.46,6.58-28.6S586.23,234.37,601.25,229.61z"/>
				<path opacity="0.18" fill="#010101" enable-background="new    " d="M566.25,263.03c0,0,5.82-25.45,15.14-33.42
					c0,0-8.31,6.83-11.16,14.94C567.38,252.66,561.98,264.29,566.25,263.03z"/>
				<path fill="#010101" d="M550.5,381.82c0,0-6.5,5.7,8,9.2s39.5,10,42.75,6s-3.1-5.26-3.28-7.21l-0.44-4.85c0,0,8,0.62,9.47,5.09
					s5,15.47,5,15.47h-79.5C532.5,405.52,544.34,384.35,550.5,381.82z"/>
				<path fill="#010101" d="M602.07,245.99c0,0,23.61,16,25.65,17.12c2.04,1.12,7.95,6.73,8.85,0.9s1.28-10.15-1.32-11.5
					c0,0-33.83-17.71-37-17.54s-7.2,0.82-5.32,9.58"/>
				<path fill="#010101" d="M594.42,303.88c0,0,13.66-22.19,14.23-25c0.57-2.81,7.27-35.23,23.62-34.29c0,0,5-0.33,5.21,4.17
					c0.02,0.75-0.06,1.5-0.24,2.23c-0.86,3.79-2.65,9.34-4.51,15.27c-1.49,4.76-3,9.77-4.16,14.33
					c-2.92,11.73-4.62,23.73-5.07,35.81c-0.29,11.95-0.29,18.5-6,27s-16.88,19.12-17.85,21.12L594.42,303.88z"/>
				<path fill="#010101" d="M632.73,266.22c1.86-5.93,3.65-11.48,4.51-15.27c0.18-0.73,0.26-1.48,0.24-2.23
					c-4.18-1.47-8.8,0.32-10.9,4.22c-4,6.84-8.54,13.38-2.85,14.8C629.42,269.16,632.73,266.22,632.73,266.22z"/>
				<path fill="#010101" d="M592.93,244.52c1.88,8.76,12.24,29.89,13.36,34.55c1.12,4.66,0.41,12.57,4,12
					c3.59-0.57,8.76-1.86,3.23-16.84c-5.53-14.98-11.47-28.23-11.47-28.23"/>
				<path opacity="0.18" fill="#010101" enable-background="new    " d="M601.25,284.36l-1.24,10.27l4.44-7.58
					c0,0-4.8,19.73-8.09,21.41c-3.29,1.68-1.19-10.2,1.61-16.77C600.77,285.12,601.25,284.36,601.25,284.36z"/>
			</g>
			<polygon fill="#79736B" points="880.5,371.17 917,367.55 937,345.53 922.87,327.25 899.5,335.53 876.32,344.43 870.69,349.21 
				870.69,359.03 			"/>
			<path fill="#FAB483" d="M934.37,342.52c0,0-37.23-48.69-37.69-52.9s-1.83-11.55-1.29-29.77c0.54-18.22-16.36-53.28-21.8-67.55
				c-5.44-14.27-11.78-10.92-11.78-10.92l0,0L858.3,172c-3.51-9.39-11.46-10-11.46-10c-1.06-8.32-5.42-15.87-12.1-20.95l-4.84,67.67
				c0,0-0.59,8.32-3.45,9.64c-2.86,1.32-2.7-4.76-7.21-10.79s-20.59-20.68-31-23.89s-17.58,1.21-19.23,3.57s-1,3.35,2.23,5.48
				c1.39,0.91,4.22,2.81,7.38,4.93c2.64,1.78,5.51,3.7,8,5.31c1.51,1,2.87,1.89,3.9,2.55c4.74,3,13.52,23.79,18.33,36.3
				s8.71,21.93,14,27.25s27.55,18.71,33.65,23.71s15.25,36.85,15.25,36.85l5.26,17.07l5.49,17.82c9.22-0.08,18.39-1.33,27.3-3.71
				C920.37,357.77,930.8,352.32,934.37,342.52z"/>
			<path opacity="0.18" fill="#333333" enable-background="new    " d="M902.5,368.99c6.12,12.66-20-4.5-20-4.5l-5.48-17.79
				l-5.26-17.07c0,0-9.14-31.85-15.25-36.85C856.5,292.78,883.27,329.24,902.5,368.99z"/>
			<path opacity="0.18" fill="#333333" enable-background="new    " d="M829.9,208.72c0,0-0.59,8.32-3.45,9.64
				c-2.86,1.32-2.7-4.76-7.21-10.79c0,0,0,15.6,5.27,18C829.78,227.97,836.4,220.21,829.9,208.72z"/>
			<path fill="#C46E5D" d="M786.57,202.97c-2.45-1.61-5.32-3.53-8-5.31c-3.16-2.12-6-4-7.38-4.93c0,0,1-4.59,8.2-2.36
				s11,5.35,10.84,7.34C790.07,199.7,786.57,202.97,786.57,202.97z"/>
			<path opacity="0.18" fill="#333333" enable-background="new    " d="M832.35,174.52c0,0,3.8,8,3.3,15.07s-4.67,4.13-4.67,4.13
				L832.35,174.52z"/>
			<path opacity="0.18" fill="#333333" enable-background="new    " d="M846.84,161.92c0,0,6.3,34.29,7.82,37s3.16-2.05,1.78-5.86
				S846.84,161.92,846.84,161.92z"/>
			<path opacity="0.18" fill="#333333" enable-background="new    " d="M861.81,181.33c0,0,4.59,21,6.57,21.25
				S862.84,184.05,861.81,181.33z"/>
			<path fill="#EFE5D6" d="M876.32,344.42c0,0-13.32,20.1,12.18,15.6s41.57-23.19,39.35-26.14l-2.65-3.51c0,0,11.8,2.65,17.3,8.65
				s54,56,54,56v10.5h-113c0,0-15.08-37-14.79-42.73c0.29-5.73,1.89-19.57,6.59-21.67L876.32,344.42z"/>
			<g opacity="0.42">
				<path fill="#FFFFFF" d="M630.85,258.07c0,0-2.87,37.07,27.77,35.46s27.77-11.23,31.6-31.48c0,0,2.87-5.88-6.7-9.4
					C673.95,249.13,644.58,243.71,630.85,258.07z"/>
				<path fill="#FFFFFF" d="M765.1,246.36c0,0,9,37.52-21.07,40.77c-30.07,3.25-28.93-7.06-36.07-27.19c0,0-3.79-5.56,4.94-10.7
					C721.63,244.1,749.31,233.84,765.1,246.36z"/>
			</g>
			<path fill="#3D4350" d="M761.29,237.64c0,0,31.61-21.43,34.77-21.62s7.26,0,6.38,8.91s-8.77,31.1-9.36,35.85s1,12.53-2.63,12.34
				s-8.92-0.86-5.12-16.36s8.17-29.36,8.17-29.36s-21.64,18.59-23.54,19.92c-1.9,1.33-7.13,7.59-8.69,1.9
				C759.71,243.53,758.87,239.28,761.29,237.64z"/>
			<path fill="#3D4350" d="M754.91,234.96c-4.15-0.51-14.63-0.23-24.47,1.48s-20.09,11.63-31.75,11.79s-25.61-8.51-49.52-6.1
				c-23.91,2.41-25.14,8.19-25.14,8.19l2.66,14.4c0,0,3,11.84,3.79,15.26c0.79,3.42,3.47,16,19.55,18.21
				c10.52,1.42,31.58,0,36.14-8.54s6-21.33,6.82-23.61s0.57-5.13,5.7-5.13s5.55-1.14,7.61,4s1.87,23.63,19.07,26.2
				c18.21,2.71,31.65-1.45,37.34-6.85c4.53-4.3,4.72-8.08,6-16.12c2.22-13.47,3.35-28.66,3.35-28.66S759.07,235.52,754.91,234.96z
				 M687.02,263.03c-3.42,18.05-0.85,26.62-28.17,28.07c-27.32,1.45-24.76-31.58-24.76-31.58c12.24-12.81,38.42-8,46.95-4.83
				C689.57,257.86,687.02,263.03,687.02,263.03z M743.21,283.93c-25.85,2.79-24.84-6.06-31-23.35c0,0-3.25-4.77,4.24-9.18
				s31.26-13.22,44.82-2.48C761.3,248.92,769.06,281.14,743.21,283.93z"/>
			<polygon fill="#79736B" points="557.67,381.54 543.5,381.82 536,393.67 557.67,397.53 585.45,401.03 600.5,401.03 596.5,391.28 
				590.97,389.81 			"/>
			<path fill="#FAB483" d="M592.65,364.52c-1.77,3.61-2.68,7.58-2.65,11.6c0,6.9,2.65,29.4,2.65,29.4H536c0,0,14.5-24.17,15.5-32.34
				s3.2-10.39,3.2-10.39c0.28-1.71-0.57-14-4.84-26.37c-4.27-12.37-12-43.64-10.25-48.19s21.63-47.81,23.34-51.22
				c1.71-3.41,8-6.26,9.39-6.55c1.39-0.29,10.57-5.4,13.11-5.4c2.54,0,8.8,4.55,8.8,4.55s12-6,17.36-4.55s10.53,5.58,16.5,9.9
				c1,0.76,2.16,1.6,3.3,2.48c5.39,4.16,11.38,9.21,13.49,10.38c0.92,0.49,1.31,1.61,0.89,2.57c-0.88,1.99-2.54,3.54-4.59,4.27
				c-3.7,1.41-6.45,4.13-17.17-4.34c-10.72-8.47-10.4-7.93-13.56-8.19c-3.16-0.26-10.36,14.12-12,19.64c-3.81,13.19-8,54.35-8,54.35
				l2.1,45L592.65,364.52z"/>
			<path opacity="0.18" fill="#333333" enable-background="new    " d="M592.65,364.52c-1.77,3.61-2.68,7.58-2.65,11.6
				c0,6.9,2.65,29.4,2.65,29.4h-16.9C575.75,405.52,579.06,370.97,592.65,364.52z"/>
			<path fill="#C46E5D" d="M645.79,250.39c1.09,0.1,0.12-2-0.89-2.57c-2.11-1.17-8.1-6.22-13.49-10.38c0,0-3.88,1.85-1.17,4.69
				S635.86,249.52,645.79,250.39z"/>
			<path opacity="0.18" fill="#333333" enable-background="new    " d="M594.25,229.61c0,0-9.68,2.74-11.67,5.35
				s-6.26,36.43-8,38.16s-3.13,1.09-1.42-5c1.71-6.09,6.34-26.46,6.58-28.6S579.23,234.37,594.25,229.61z"/>
			<path opacity="0.18" fill="#333333" enable-background="new    " d="M559.25,263.03c0,0,5.82-25.45,15.14-33.42
				c0,0-8.31,6.83-11.16,14.94C560.38,252.66,554.98,264.29,559.25,263.03z"/>
			<path fill="#EFE5D6" d="M543.5,381.82c0,0-6.5,5.7,8,9.2s39.5,10,42.75,6s-3.1-5.26-3.28-7.21l-0.47-4.85c0,0,8,0.62,9.47,5.09
				c1.47,4.47,5,15.47,5,15.47H525.5C525.5,405.52,537.34,384.35,543.5,381.82z"/>
			<path fill="#3D4350" d="M595.07,245.99c0,0,23.61,16,25.65,17.12c2.04,1.12,7.95,6.73,8.85,0.9s1.28-10.15-1.32-11.5
				c0,0-33.83-17.71-37-17.54s-7.2,0.82-5.32,9.58"/>
			<path fill="#FAB483" d="M587.42,303.88c0,0,13.66-22.19,14.23-25c0.57-2.81,7.27-35.23,23.62-34.29c0,0,5-0.33,5.21,4.17
				c0.02,0.75-0.06,1.5-0.24,2.23c-0.86,3.79-2.65,9.34-4.51,15.27c-1.49,4.76-3,9.77-4.16,14.33c-2.92,11.73-4.62,23.73-5.07,35.81
				c-0.29,11.95-0.29,18.5-6,27s-16.88,19.12-17.85,21.12L587.42,303.88z"/>
			<path fill="#C46E5D" d="M625.73,266.22c1.86-5.93,3.65-11.48,4.51-15.27c0.18-0.73,0.26-1.48,0.24-2.23
				c-4.18-1.47-8.8,0.32-10.9,4.22c-4,6.84-8.54,13.38-2.85,14.8S625.73,266.22,625.73,266.22z"/>
			<path fill="#3D4350" d="M585.93,244.52c1.88,8.76,12.24,29.89,13.36,34.55c1.12,4.66,0.41,12.57,4,12
				c3.59-0.57,8.76-1.86,3.23-16.84c-5.53-14.98-11.47-28.23-11.47-28.23"/>
			<path opacity="0.18" fill="#333333" enable-background="new    " d="M594.25,284.36l-1.24,10.27l4.44-7.58
				c0,0-4.8,19.73-8.09,21.41c-3.29,1.68-1.19-10.2,1.61-16.77C593.77,285.12,594.25,284.36,594.25,284.36z"/>
		</g>
	</g>
</g>
</svg>
