<?xml version="1.0" encoding="utf-8"?>
<!-- Generator: Adobe Illustrator 24.0.1, SVG Export Plug-In . SVG Version: 6.00 Build 0)  -->
<svg version="1.1" id="Capa_1" xmlns="http://www.w3.org/2000/svg" xmlns:xlink="http://www.w3.org/1999/xlink" x="0px" y="0px"
	 viewBox="0 0 368 368" style="enable-background:new 0 0 368 368;" xml:space="preserve">
<style type="text/css">
	.st0{fill:#CCE4FF;}
	.st1{fill:#4EB5C2;}
</style>
<path class="st0" d="M232,56v48h96v240c0,8.8-7.2,16-16,16H56c-8.9,0-16-7.2-16-16V24c0-8.8,7.1-16,16-16h176V56z"/>
<g>
	<path class="st1" d="M32,24v320c0,13.2,10.8,24,24,24h256c13.2,0,24-10.8,24-24V88c0-2.1-0.8-4.2-2.3-5.7l-80-80
		C252.2,0.8,250.1,0,248,0H56C42.8,0,32,10.8,32,24z M240,16h4.7L320,91.3V96h-80V16z M224,48H88c-4.4,0-8,3.6-8,8v48
		c0,4.4,3.6,8,8,8s8-3.6,8-8V64h128v40c0,4.4,3.6,8,8,8h88v232c0,4.4-3.6,8-8,8H56c-4.4,0-8-3.6-8-8V24c0-4.4,3.6-8,8-8h168V48z"/>
	<path class="st1" d="M141.7,189.7l34.3-34.3V296c0,4.4,3.6,8,8,8s8-3.6,8-8V155.3l34.3,34.3c1.6,1.6,3.6,2.3,5.7,2.3
		s4.1-0.8,5.7-2.3c3.1-3.1,3.1-8.2,0-11.3l-48-48c-0.7-0.7-1.6-1.3-2.6-1.7c-2-0.8-4.2-0.8-6.1,0c-1,0.4-1.9,1-2.6,1.7l-48,48
		c-3.1,3.1-3.1,8.2,0,11.3C133.5,192.8,138.5,192.8,141.7,189.7z"/>
</g>
</svg>
