<?xml version="1.0" encoding="utf-8"?>
<!-- Generator: Adobe Illustrator 22.1.0, SVG Export Plug-In . SVG Version: 6.00 Build 0)  -->
<svg version="1.1" id="Layer_1" xmlns="http://www.w3.org/2000/svg" xmlns:xlink="http://www.w3.org/1999/xlink" x="0px" y="0px"
	 viewBox="0 0 118 122" style="enable-background:new 0 0 118 122;" xml:space="preserve">
<style type="text/css">
	.st0{fill:#FFFFFF;}
	.st1{fill:#20C1AF;}
	.st2{fill:#565656;}
	.st3{font-family:'Rubik-Medium';}
	.st4{font-size:22.382px;}
</style>
<g>
	<path class="st0" d="M5.8,113.2h77.9c1.7,0,2.8-1.1,2.8-2.8V27H69.8c-4.7,0-8.3-3.6-8.3-8.3V1.9H5.8C4.1,1.9,3,3,3,4.7v105.7
		C3,112.1,4.1,113.2,5.8,113.2z"/>
	<path class="st1" d="M66.6,25.3h14L63.6,8.3v14C63.6,24.1,64.8,25.3,66.6,25.3z"/>
	<path class="st1" d="M14.9,85.7h34.6c1,0,1.6-0.6,1.6-1.6c0-1-0.6-1.6-1.6-1.6H14.9c-1,0-1.6,0.6-1.6,1.6
		C13.3,85.1,13.9,85.7,14.9,85.7z"/>
	<path class="st1" d="M14.9,43.1h26.6c1,0,1.6-0.6,1.6-1.6c0-1-0.6-1.6-1.6-1.6H14.9c-1,0-1.6,0.6-1.6,1.6
		C13.3,42.5,13.9,43.1,14.9,43.1z"/>
	<path class="st1" d="M54.8,50.6H36.2c-1,0-1.6,0.6-1.6,1.6c0,1,0.6,1.6,1.6,1.6h18.6c1,0,1.6-0.6,1.6-1.6
		C56.4,51.2,55.8,50.6,54.8,50.6z"/>
	<path class="st1" d="M52.2,43.1h10.7c1,0,1.6-0.6,1.6-1.6c0-1-0.6-1.6-1.6-1.6H52.2c-1,0-1.6,0.6-1.6,1.6
		C50.6,42.5,51.2,43.1,52.2,43.1z"/>
	<path class="st1" d="M14.9,64.4h24c1,0,1.6-0.6,1.6-1.6c0-1-0.6-1.6-1.6-1.6h-24c-1,0-1.6,0.6-1.6,1.6
		C13.3,63.8,13.9,64.4,14.9,64.4z"/>
	<path class="st1" d="M14.9,75h10.7c1,0,1.6-0.6,1.6-1.6c0-1-0.6-1.6-1.6-1.6H14.9c-1,0-1.6,0.6-1.6,1.6C13.3,74.5,13.9,75,14.9,75z
		"/>
	<path class="st1" d="M14.9,53.7h10.7c1,0,1.6-0.6,1.6-1.6c0-1-0.6-1.6-1.6-1.6H14.9c-1,0-1.6,0.6-1.6,1.6
		C13.3,53.2,13.9,53.7,14.9,53.7z"/>
	<path class="st1" d="M54.8,61.3h-5.3c-1,0-1.6,0.6-1.6,1.6c0,1,0.6,1.6,1.6,1.6h5.3c1,0,1.6-0.6,1.6-1.6
		C56.4,61.8,55.8,61.3,54.8,61.3z"/>
	<path class="st1" d="M46.8,71.9H36.2c-1,0-1.6,0.6-1.6,1.6c0,1,0.6,1.6,1.6,1.6h10.7c1,0,1.6-0.6,1.6-1.6
		C48.4,72.5,47.8,71.9,46.8,71.9z"/>
	<path class="st2" d="M85.2,87.8v20.3c0,2.2-1.6,3.8-3.8,3.8H6.9c-2.2,0-3.8-1.6-3.8-3.8V6.9c0-2.2,1.6-3.8,3.8-3.8h54.4v17.1
		c0,3.9,3,6.9,6.9,6.9h17.1V92h3.1V25.5c0,0,0,0,0-0.1v0c0-0.1,0-0.1,0-0.2c-0.1-0.5-0.3-0.9-0.8-1.1L64.2,0.8
		C64,0.4,63.6,0.1,63.1,0c-0.1,0-0.1,0-0.2,0c0,0,0,0-0.1,0H6.9C3,0,0,3,0,6.9v101.2c0,3.9,3,6.9,6.9,6.9h74.6c3.9,0,6.9-3,6.9-6.9
		V87.8H85.2z M64.4,5.3L83.1,24H68.1c-2.2,0-3.8-1.6-3.8-3.8V5.3z"/>
	<ellipse class="st0" cx="72.5" cy="77.2" rx="26.4" ry="25.4"/>
	<path class="st2" d="M110.9,122c1.9,0,3.7-0.7,5-2.1c2.8-2.8,2.8-7.3,0-10L97.8,91.8l0.2-0.3c2.5-4.3,3.8-9.3,3.8-14.3
		c0-7.4-2.8-14.4-8-19.8l-0.1-0.2c-2.1-2-4.3-3.6-4.3-3.6c-4.8-3.3-10.5-5.1-16.3-5.1c-15.8,0-28.7,12.9-28.7,28.7
		c0,3,0.5,6,1.4,8.9c0.6,1.6,1.3,3.3,1.6,4l0,0l0.2,0.4c5,9.6,14.8,15.5,25.5,15.5c5,0,10-1.3,14.3-3.8l0.3-0.2l18.1,18.1
		C107.2,121.3,109,122,110.9,122z M73.1,102.4c-13.9,0-25.3-11.3-25.3-25.2c0-13.9,11.3-25.3,25.2-25.3s25.3,11.3,25.3,25.2
		C98.4,91,87,102.4,73.1,102.4z M91.1,99.5c1.6-1.3,3.1-2.7,4.3-4.3l0.4-0.5l17.7,17.7c0.7,0.7,1.1,1.6,1.1,2.6c0,1-0.4,1.9-1.1,2.6
		c-0.7,0.7-1.6,1.1-2.6,1.1c-1,0-1.9-0.4-2.6-1.1L90.6,99.8L91.1,99.5z"/>
	<text transform="matrix(1 0 0 1 54.4407 83.1973)" class="st1 st3 st4">abc</text>
</g>
</svg>
