<?xml version="1.0" encoding="utf-8"?>
<!-- Generator: Adobe Illustrator 22.1.0, SVG Export Plug-In . SVG Version: 6.00 Build 0)  -->
<svg version="1.1" id="Layer_1" xmlns="http://www.w3.org/2000/svg" xmlns:xlink="http://www.w3.org/1999/xlink" x="0px" y="0px"
	 viewBox="0 0 76.8 100" style="enable-background:new 0 0 76.8 100;" xml:space="preserve">
<style type="text/css">
	.st0{fill:#FFFFFF;}
	.st1{fill:#20C1AF;}
	.st2{fill:#565656;}
</style>
<g>
	<path class="st0" d="M4.5,98.5h67.8c1.5,0,2.4-1,2.4-2.4V23.5H60.2c-4.1,0-7.3-3.1-7.3-7.3V1.7H4.5c-1.5,0-2.4,1-2.4,2.4v91.9
		C2.1,97.5,3.1,98.5,4.5,98.5z"/>
	<path class="st1" d="M57.9,22h12.2L55.3,7.2v12.2C55.3,21,56.3,22,57.9,22z"/>
	<path class="st2" d="M74.1,76.4V94c0,1.9-1.4,3.3-3.3,3.3H6c-1.9,0-3.3-1.4-3.3-3.3V6c0-1.9,1.4-3.3,3.3-3.3h47.3v14.9
		c0,3.4,2.6,6,6,6h14.9V80h2.7V22.2c0,0,0,0,0-0.1v0c0-0.1,0-0.1,0-0.2c-0.1-0.5-0.3-0.8-0.7-1L55.9,0.7c-0.2-0.4-0.5-0.6-1-0.7
		c-0.1,0-0.1,0-0.2,0c0,0,0,0-0.1,0H6C2.6,0,0,2.6,0,6v88c0,3.4,2.6,6,6,6h64.9c3.4,0,6-2.6,6-6V76.4H74.1z M56,4.6l16.3,16.3h-13
		c-1.9,0-3.3-1.4-3.3-3.3V4.6z"/>
	<g>
		<path class="st1" d="M24.7,47.5V24.3c0-0.9-0.5-1.4-1.4-1.4c-0.9,0-1.4,0.5-1.4,1.4v23.2c0,0.9,0.5,1.4,1.4,1.4
			C24.2,48.8,24.7,48.3,24.7,47.5z"/>
		<path class="st1" d="M39.6,47.5V26.6c0-0.9-0.5-1.4-1.4-1.4c-0.9,0-1.3,0.5-1.3,1.4v20.8c0,0.9,0.5,1.4,1.3,1.4
			C39.1,48.8,39.6,48.3,39.6,47.5z"/>
		<path class="st1" d="M47,47.5v-9.3c0-0.9-0.5-1.4-1.4-1.4c-0.9,0-1.4,0.5-1.4,1.4v9.3c0,0.9,0.5,1.4,1.4,1.4
			C46.5,48.8,47,48.3,47,47.5z"/>
		<path class="st1" d="M32.2,47.5V32.1c0-0.9-0.5-1.4-1.4-1.4c-0.9,0-1.4,0.5-1.4,1.4v15.3c0,0.9,0.5,1.4,1.4,1.4
			C31.7,48.8,32.2,48.3,32.2,47.5z"/>
		<path class="st2" d="M54.5,48.3l0-0.1c0-0.2,0-0.5-0.2-0.7c-0.2-0.2-0.6-0.3-1-0.3H17.7V19.8c0-0.4,0-0.8-0.3-1
			c-0.2-0.2-0.5-0.2-0.7-0.2l-0.1,0l-0.1,0c-0.2,0-0.5,0-0.7,0.2c-0.2,0.2-0.3,0.6-0.3,1v28.1c0,0.1,0,0.2,0,0.2l0,0.1l0,0.1
			c0,0.2,0,0.5,0.2,0.7c0.2,0.2,0.6,0.3,1,0.3h36.6c0.4,0,0.8,0,1-0.3c0.2-0.2,0.2-0.5,0.2-0.7L54.5,48.3z"/>
	</g>
	<path class="st1" d="M13.8,73.3h30.1c0.9,0,1.4-0.5,1.4-1.4c0-0.9-0.5-1.4-1.4-1.4H13.8c-0.9,0-1.4,0.5-1.4,1.4
		C12.5,72.8,12.9,73.3,13.8,73.3z"/>
	<path class="st1" d="M13.3,64.1h9.3c0.9,0,1.4-0.5,1.4-1.4c0-0.9-0.5-1.4-1.4-1.4h-9.3c-0.9,0-1.4,0.5-1.4,1.4
		C11.9,63.6,12.4,64.1,13.3,64.1z"/>
	<path class="st1" d="M41.6,61.3h-9.3c-0.9,0-1.4,0.5-1.4,1.4c0,0.9,0.5,1.4,1.4,1.4h9.3c0.9,0,1.4-0.5,1.4-1.4
		C43,61.8,42.5,61.3,41.6,61.3z"/>
	<path class="st1" d="M13.3,82.6h9.3c0.9,0,1.4-0.5,1.4-1.4s-0.5-1.4-1.4-1.4h-9.3c-0.9,0-1.4,0.5-1.4,1.4S12.4,82.6,13.3,82.6z"/>
	<path class="st1" d="M60.6,79.9H32.3c-0.9,0-1.4,0.5-1.4,1.4s0.5,1.4,1.4,1.4h28.2c0.9,0,1.4-0.5,1.4-1.4S61.4,79.9,60.6,79.9z"/>
	<path class="st1" d="M59.9,61.3h-9.3c-0.9,0-1.4,0.5-1.4,1.4c0,0.9,0.5,1.4,1.4,1.4h9.3c0.9,0,1.4-0.5,1.4-1.4
		C61.3,61.8,60.8,61.3,59.9,61.3z"/>
	<path class="st1" d="M60.5,70.6h-9.3c-0.9,0-1.4,0.5-1.4,1.4s0.5,1.4,1.4,1.4h9.3c0.9,0,1.4-0.5,1.4-1.4S61.4,70.6,60.5,70.6z"/>
</g>
</svg>
