<?xml version="1.0" encoding="utf-8"?>
<!-- Generator: Adobe Illustrator 22.1.0, SVG Export Plug-In . SVG Version: 6.00 Build 0)  -->
<svg version="1.1" id="Layer_1" xmlns="http://www.w3.org/2000/svg" xmlns:xlink="http://www.w3.org/1999/xlink" x="0px" y="0px"
	 viewBox="0 0 328 282.9" style="enable-background:new 0 0 328 282.9;" xml:space="preserve">
<style type="text/css">
	.st0{fill:none;}
	.st1{clip-path:url(#SVGID_2_);fill:#99ECE3;}
	.st2{clip-path:url(#SVGID_4_);}
	.st3{fill:#F9F9F9;}
	.st4{clip-path:url(#SVGID_6_);}
	.st5{fill:#D3D3D3;}
	.st6{fill:#E5E5E5;}
	.st7{clip-path:url(#SVGID_8_);fill:none;stroke:#CCCCCC;stroke-miterlimit:10;}
	.st8{clip-path:url(#SVGID_10_);fill:none;}
	.st9{opacity:0.5;fill:#999999;enable-background:new    ;}
	.st10{font-family:'MyriadPro-Regular';}
	.st11{font-size:5px;}
	.st12{opacity:0.5;}
	.st13{clip-path:url(#SVGID_12_);}
	.st14{fill:#999999;}
	.st15{clip-path:url(#SVGID_14_);fill:none;}
	.st16{clip-path:url(#SVGID_16_);enable-background:new    ;}
	.st17{font-family:'OpenSans-Semibold';}
	.st18{font-size:6px;}
	.st19{fill:url(#SVGID_17_);}
</style>
<rect class="st0" width="328" height="281.6"/>
<g>
	<g>
		<g>
			<g>
				<defs>
					<rect id="SVGID_1_" width="328" height="282.9"/>
				</defs>
				<clipPath id="SVGID_2_">
					<use xlink:href="#SVGID_1_"  style="overflow:visible;"/>
				</clipPath>
				<path class="st1" d="M285.5,280.5c0-0.7-0.1-1.2-0.1-1.7l-6-43.8l0,0l-1.3-9.7L256.4,68v-0.2c0-0.1,0-0.2-0.1-0.3v-0.1
					c0-0.1-0.1-0.1-0.1-0.2c0,0-0.1-0.1-0.1-0.2c0,0-0.1-0.1-0.1-0.2l-0.1-0.1l-0.1-0.1l-0.1-0.1c-0.1-0.1-0.2-0.2-0.3-0.2l-0.1-0.1
					l-71-53.9c0,0-0.1-0.1-0.2-0.1H184c-0.1,0-0.2-0.1-0.3-0.1l-0.2-0.1c0,0,0,0-0.1,0h-0.1c-0.1,0-0.2,0-0.2,0l0,0
					c-0.1,0-0.2,0-0.4,0h-0.3l-146,19.9c-4.5,0.6-8.4,2.9-11.2,6.5C22.5,42,21.4,46.5,22,51l35.6,259.2c0.6,4.5,2.9,8.4,6.5,11.2
					c3.6,2.7,8,3.9,12.5,3.3L271,298C279.5,296.7,285.8,289.2,285.5,280.5z"/>
			</g>
		</g>
	</g>
</g>
<g>
	<g>
		<defs>
			<rect id="SVGID_3_" width="328" height="281.6"/>
		</defs>
		<clipPath id="SVGID_4_">
			<use xlink:href="#SVGID_3_"  style="overflow:visible;"/>
		</clipPath>
		<g class="st2">
			<g>
				<path class="st3" d="M289.1,292.1c0,8.2-6.8,15-15,15h-188c-8.2,0-15-6.8-15-15v-255c0-8.2,6.8-15,15-15h188c8.2,0,15,6.8,15,15
					V292.1z"/>
			</g>
		</g>
	</g>
</g>
<g>
	<g>
		<defs>
			<rect id="SVGID_5_" width="328" height="281.6"/>
		</defs>
		<clipPath id="SVGID_6_">
			<use xlink:href="#SVGID_5_"  style="overflow:visible;"/>
		</clipPath>
		<g class="st4">
			<g>
				<path class="st5" d="M262.3,88.5h-165c-4.7,0-8.5-3.8-8.5-8.5V48.7c0-4.7,3.8-8.5,8.5-8.5h165c4.7,0,8.5,3.8,8.5,8.5V80
					C270.8,84.7,267,88.5,262.3,88.5z M97.4,41.2c-4.1,0-7.5,3.4-7.5,7.5V80c0,4.1,3.4,7.5,7.5,7.5h165c4.1,0,7.5-3.4,7.5-7.5V48.7
					c0-4.1-3.4-7.5-7.5-7.5H97.4z"/>
			</g>
			<rect x="129.2" y="68.9" class="st6" width="101.2" height="10.3"/>
		</g>
	</g>
</g>
<g>
	<g>
		<defs>
			<rect id="SVGID_7_" width="328" height="281.6"/>
		</defs>
		<clipPath id="SVGID_8_">
			<use xlink:href="#SVGID_7_"  style="overflow:visible;"/>
		</clipPath>
		<line class="st7" x1="93.8" y1="178.6" x2="261.7" y2="178.6"/>
	</g>
</g>
<g>
	<g>
		<defs>
			<rect id="SVGID_9_" width="328" height="281.6"/>
		</defs>
		<clipPath id="SVGID_10_">
			<use xlink:href="#SVGID_9_"  style="overflow:visible;"/>
		</clipPath>
		<rect x="83.3" y="108.4" class="st8" width="186.1" height="62.5"/>
	</g>
</g>
<text transform="matrix(1 0 0 1 103.8575 124.6497)" class="st9 st10 st11">Equipment Engineer | Civil/Mechanical Engineer | Petroleum Engineer</text>
<text transform="matrix(1 0 0 1 90.2575 136.6497)" class="st9 st10 st11">Highly motivated and forward-thinking Junior Project Engineer with BSc. Degree in </text>
<text transform="matrix(1 0 0 1 93.8575 142.6497)" class="st9 st10 st11">Petroleum Engineering and three years of professional experience in residential </text>
<text transform="matrix(1 0 0 1 91.4575 148.6497)" class="st9 st10 st11">construction as well as testing and engineering services for variety of projects and</text>
<text transform="matrix(1 0 0 1 92.7575 154.6497)" class="st9 st10 st11">industries. Excellent at utilizing various software for project needs, well-versed in </text>
<text transform="matrix(1 0 0 1 90.5575 160.6497)" class="st9 st10 st11">Schlumberger Oil and Gas Software (PIPESIM and FORGAS), AccuMap, Surfer, Value </text>
<text transform="matrix(1 0 0 1 105.8575 166.6497)" class="st9 st10 st11">Navigator 2017, MATLAB and AutoCAD. Core competencies include:</text>
<g class="st12">
	<g>
		<defs>
			<rect id="SVGID_11_" width="328" height="281.6"/>
		</defs>
		<clipPath id="SVGID_12_">
			<use xlink:href="#SVGID_11_"  style="overflow:visible;"/>
		</clipPath>
		<g class="st13">
			<path d="M87.6,199c0.6-0.5,1.7-1.4,1.7-2.1c0-0.3-0.2-0.5-0.6-0.5c-0.3,0-0.6,0.2-0.7,0.5l-0.4-0.1c0.1-0.5,0.6-0.8,1.1-0.8
				c0.7,0,1.1,0.4,1.1,0.8c0,0.9-1.3,1.9-1.6,2.2H90v0.4h-2.3L87.6,199L87.6,199z"/>
			<path d="M91.7,195.9c0.9,0,1.2,0.7,1.2,1.7s-0.4,1.7-1.2,1.7c-0.9,0-1.3-0.7-1.3-1.7C90.5,196.6,90.9,195.9,91.7,195.9z
				 M91.7,199c0.6,0,0.8-0.5,0.8-1.3s-0.2-1.3-0.8-1.3s-0.8,0.5-0.8,1.3C90.9,198.5,91.2,199,91.7,199z"/>
			<path d="M94.3,195.9h0.3v3.3h-0.4v-2.8l-0.6,0.4l-0.2-0.3L94.3,195.9z"/>
			<path d="M96.8,195.9c0.9,0,1.2,0.7,1.2,1.7s-0.4,1.7-1.2,1.7s-1.3-0.7-1.3-1.7C95.5,196.6,95.9,195.9,96.8,195.9z M96.8,199
				c0.6,0,0.8-0.5,0.8-1.3s-0.2-1.3-0.8-1.3c-0.6,0-0.8,0.5-0.8,1.3S96.2,199,96.8,199z"/>
			<path d="M99.7,197.8h3.4v0.3h-3.4V197.8z"/>
			<path d="M104.7,199c0.6-0.5,1.7-1.4,1.7-2.1c0-0.3-0.2-0.5-0.6-0.5c-0.3,0-0.6,0.2-0.7,0.5l-0.4-0.1c0.1-0.5,0.6-0.8,1.1-0.8
				c0.7,0,1.1,0.4,1.1,0.8c0,0.9-1.3,1.9-1.6,2.2h1.8v0.4h-2.3L104.7,199L104.7,199z"/>
			<path d="M108.9,195.9c0.9,0,1.2,0.7,1.2,1.7s-0.4,1.7-1.2,1.7c-0.9,0-1.3-0.7-1.3-1.7S108,195.9,108.9,195.9z M108.9,199
				c0.6,0,0.8-0.5,0.8-1.3s-0.2-1.3-0.8-1.3c-0.6,0-0.8,0.5-0.8,1.3S108.3,199,108.9,199z"/>
			<path d="M111.5,195.9h0.3v3.3h-0.4v-2.8l-0.6,0.4l-0.2-0.3L111.5,195.9z"/>
			<path d="M112.6,196h2.3v0.2l-1.4,3.1H113l1.4-2.9h-1.8V196z"/>
			<path d="M123.1,199c-0.3,0.2-0.7,0.4-1.2,0.4c-1.2,0-1.9-0.7-1.9-1.7s0.7-1.7,1.9-1.7c0.5,0,0.9,0.1,1.2,0.3l-0.2,0.3
				c-0.3-0.2-0.5-0.2-0.9-0.2c-0.8,0-1.4,0.5-1.4,1.3s0.6,1.3,1.5,1.3c0.4,0,0.7-0.1,1-0.3V199z"/>
			<path d="M124.6,197.1c0.8,0,1.3,0.5,1.3,1.1s-0.5,1.1-1.3,1.1s-1.3-0.5-1.3-1.1S123.9,197.1,124.6,197.1z M124.6,199
				c0.5,0,0.9-0.3,0.9-0.8c0-0.4-0.4-0.8-0.9-0.8s-0.8,0.3-0.8,0.8S124.2,199,124.6,199z"/>
			<path d="M130.2,199.3h-0.4V198c0-0.4-0.2-0.5-0.5-0.5s-0.5,0.1-0.6,0.3c0,0,0,0.1,0,0.2v1.4h-0.4V198c0-0.3-0.2-0.4-0.5-0.4
				s-0.5,0.1-0.6,0.3v1.5h-0.4v-2.1h0.4v0.3c0.2-0.2,0.5-0.3,0.8-0.3c0.4,0,0.7,0.1,0.7,0.4c0.2-0.2,0.5-0.4,0.9-0.4
				c0.5,0,0.8,0.2,0.8,0.8v1.2H130.2z"/>
			<path d="M130.9,197.1h0.4v0.3c0.2-0.2,0.5-0.3,0.8-0.3c0.7,0,1.1,0.5,1.1,1.1c0,0.7-0.5,1.1-1.3,1.1c-0.3,0-0.5,0-0.7-0.1v1h-0.4
				L130.9,197.1L130.9,197.1z M131.3,197.7v1.1c0.2,0.1,0.4,0.2,0.7,0.2c0.5,0,0.9-0.3,0.9-0.8c0-0.4-0.3-0.7-0.8-0.7
				C131.7,197.4,131.5,197.6,131.3,197.7z"/>
			<path d="M133.9,197.3c0.2-0.1,0.5-0.2,0.8-0.2c0.7,0,0.9,0.3,0.9,0.9v1.3h-0.4V199c-0.1,0.2-0.4,0.3-0.8,0.3
				c-0.4,0-0.8-0.2-0.8-0.7c0-0.4,0.4-0.7,0.9-0.7c0.2,0,0.4,0,0.6,0.1c0-0.4-0.1-0.7-0.6-0.7c-0.3,0-0.5,0.1-0.7,0.2L133.9,197.3z
				 M135.3,198.7v-0.3c-0.2-0.1-0.3-0.1-0.6-0.1s-0.5,0.1-0.5,0.4c0,0.2,0.2,0.3,0.4,0.3C134.9,199,135.1,198.8,135.3,198.7z"/>
			<path d="M136.4,197.1h0.4v0.3c0.2-0.2,0.5-0.3,0.8-0.3c0.6,0,1,0.3,1,0.9v1.2h-0.4V198c0-0.4-0.2-0.7-0.7-0.7
				c-0.3,0-0.5,0.1-0.7,0.3v1.5h-0.4L136.4,197.1L136.4,197.1z"/>
			<path d="M140.6,199.3c-0.4,0.8-0.6,0.9-0.9,0.9c-0.2,0-0.3-0.1-0.5-0.1l0.1-0.3c0.1,0,0.2,0.1,0.3,0.1c0.2,0,0.4-0.1,0.5-0.5
				l0.1-0.1l-1.2-2.1h0.5l0.7,1.4c0.1,0.1,0.1,0.2,0.1,0.3c0-0.1,0.1-0.2,0.1-0.3l0.6-1.4h0.5L140.6,199.3z"/>
			<path d="M146.1,199.3l-2.4-2.6v2.6h-0.4V196h0.4l2.4,2.6V196h0.4v3.3H146.1z"/>
			<path d="M147.4,197.3c0.2-0.1,0.5-0.2,0.8-0.2c0.7,0,0.9,0.3,0.9,0.9v1.3h-0.4V199c-0.1,0.2-0.4,0.3-0.8,0.3
				c-0.4,0-0.8-0.2-0.8-0.7c0-0.4,0.4-0.7,0.9-0.7c0.2,0,0.4,0,0.6,0.1c0-0.4-0.1-0.7-0.6-0.7c-0.3,0-0.5,0.1-0.7,0.2L147.4,197.3z
				 M148.8,198.7v-0.3c-0.2-0.1-0.3-0.1-0.6-0.1s-0.5,0.1-0.5,0.4c0,0.2,0.2,0.3,0.4,0.3C148.5,199,148.7,198.8,148.8,198.7z"/>
			<path d="M153.6,199.3h-0.5V198c0-0.4-0.2-0.5-0.5-0.5s-0.5,0.1-0.6,0.3c0,0,0,0.1,0,0.2v1.4h-0.4V198c0-0.3-0.2-0.4-0.5-0.4
				s-0.5,0.1-0.6,0.3v1.5h-0.4v-2.1h0.4v0.3c0.2-0.2,0.5-0.3,0.8-0.3c0.4,0,0.7,0.1,0.7,0.4c0.2-0.2,0.5-0.4,0.9-0.4
				c0.5,0,0.8,0.2,0.8,0.8L153.6,199.3L153.6,199.3z"/>
			<path d="M156.3,199c-0.2,0.2-0.6,0.3-0.9,0.3c-0.8,0-1.3-0.4-1.3-1.1c0-0.6,0.5-1.1,1.3-1.1c0.6,0,1.1,0.4,1.1,1
				c0,0.1,0,0.2,0,0.3h-1.9c0,0.4,0.4,0.6,0.9,0.6c0.3,0,0.6-0.1,0.8-0.2L156.3,199z M154.5,198h1.5c0-0.4-0.3-0.6-0.7-0.6
				C154.9,197.4,154.6,197.7,154.5,198z"/>
			<path d="M159.5,195.9l0.3,0.1l-1.8,4.2l-0.3-0.1L159.5,195.9z"/>
			<path d="M161.4,199.3V196c0.2,0,0.8,0,1,0c1.1,0,1.4,0.5,1.4,1s-0.4,1-1.4,1c-0.2,0-0.4,0-0.6,0v1.3H161.4z M161.8,196.3v1.3
				c0.2,0,0.4,0,0.6,0c0.6,0,0.9-0.3,0.9-0.7s-0.3-0.6-0.9-0.6C162.3,196.3,162,196.3,161.8,196.3z"/>
			<path d="M165.2,197.1c0.8,0,1.3,0.5,1.3,1.1s-0.5,1.1-1.3,1.1s-1.3-0.5-1.3-1.1S164.5,197.1,165.2,197.1z M165.2,199
				c0.5,0,0.9-0.3,0.9-0.8c0-0.4-0.4-0.8-0.9-0.8s-0.9,0.3-0.9,0.8C164.4,198.7,164.8,199,165.2,199z"/>
			<path d="M167.1,197.7c0-0.4,0.4-0.6,0.8-0.6c0.4,0,0.7,0.1,0.9,0.3l-0.2,0.3c-0.1-0.1-0.4-0.2-0.6-0.2c-0.2,0-0.4,0.1-0.4,0.3
				c0,0.5,1.3,0.2,1.3,1c0,0.5-0.5,0.6-1,0.6c-0.4,0-0.8-0.2-0.9-0.3l0.2-0.3c0.1,0.1,0.5,0.3,0.7,0.3s0.4-0.1,0.4-0.3
				C168.4,198.3,167.1,198.5,167.1,197.7z"/>
			<path d="M169.8,196.1c0.1,0,0.3,0.1,0.3,0.2c0,0.2-0.1,0.2-0.3,0.2s-0.3-0.1-0.3-0.2C169.5,196.2,169.6,196.1,169.8,196.1z
				 M169.6,197.1h0.4v2.1h-0.4V197.1z"/>
			<path d="M170.8,196.5h0.4v0.6h0.9v0.4h-0.9v0.9c0,0.3,0.1,0.5,0.4,0.5c0.2,0,0.3-0.1,0.4-0.1l0.1,0.3c-0.1,0.1-0.4,0.2-0.6,0.2
				c-0.6,0-0.8-0.3-0.8-0.8v-2L170.8,196.5L170.8,196.5z"/>
			<path d="M173.1,196.1c0.1,0,0.3,0.1,0.3,0.2c0,0.2-0.1,0.2-0.3,0.2s-0.3-0.1-0.3-0.2C172.8,196.2,172.9,196.1,173.1,196.1z
				 M172.9,197.1h0.4v2.1h-0.4V197.1z"/>
			<path d="M175.3,197.1c0.8,0,1.3,0.5,1.3,1.1s-0.5,1.1-1.3,1.1s-1.3-0.5-1.3-1.1S174.5,197.1,175.3,197.1z M175.3,199
				c0.5,0,0.9-0.3,0.9-0.8c0-0.4-0.4-0.8-0.9-0.8s-0.9,0.3-0.9,0.8C174.5,198.7,174.8,199,175.3,199z"/>
			<path d="M177.2,197.1h0.4v0.3c0.2-0.2,0.5-0.3,0.8-0.3c0.6,0,1,0.3,1,0.9v1.2H179V198c0-0.4-0.2-0.7-0.7-0.7
				c-0.3,0-0.5,0.1-0.7,0.3v1.5h-0.4L177.2,197.1L177.2,197.1z"/>
			<rect x="86.8" y="202.8" class="st0" width="186.1" height="23.4"/>
			<text transform="matrix(1 0 0 1 86.752 206.3682)" class="st14 st10 st11">Firm of Geotechnical and Construction Materials Engineers and technicians who provide </text>
			<text transform="matrix(1 0 0 1 86.752 212.3682)" class="st14 st10 st11">their services to Municipal and Transportation Engineers, Subdivision and Housing </text>
			<text transform="matrix(1 0 0 1 86.752 218.3682)" class="st14 st10 st11">Developers, Contractors, Government, etc.</text>
		</g>
	</g>
</g>
<g>
	<g>
		<defs>
			<rect id="SVGID_13_" width="328" height="281.6"/>
		</defs>
		<clipPath id="SVGID_14_">
			<use xlink:href="#SVGID_13_"  style="overflow:visible;"/>
		</clipPath>
		<rect x="86.6" y="228.8" class="st15" width="186.1" height="23.4"/>
	</g>
</g>
<text transform="matrix(1 0 0 1 86.5566 232.3682)" class="st9 st10 st11">Firm of Geotechnical and Construction Materials Engineers and technicians who provide </text>
<text transform="matrix(1 0 0 1 86.5566 238.3682)" class="st9 st10 st11">their services to Municipal and Transportation Engineers, Subdivision and Housing </text>
<text transform="matrix(1 0 0 1 86.5566 244.3682)" class="st9 st10 st11">Developers, Contractors, Government, etc.</text>
<g class="st12">
	<g>
		<defs>
			<rect id="SVGID_15_" width="328" height="281.6"/>
		</defs>
		<clipPath id="SVGID_16_">
			<use xlink:href="#SVGID_15_"  style="overflow:visible;"/>
		</clipPath>
		<g class="st16">
			<text transform="matrix(1 0 0 1 127.1974 189.5078)" class="st17 st18">PROFESSIONAL EXPERIENCE</text>
		</g>
	</g>
</g>
<g>
	<path class="st6" d="M205.7,109.4c0,0.6-0.5,1-1,1h-58.5c-0.6,0-1-0.4-1-1v-2.7c0-0.5,0.4-1,1-1h58.5c0.5,0,1,0.5,1,1V109.4z"/>
</g>
<linearGradient id="SVGID_17_" gradientUnits="userSpaceOnUse" x1="177.921" y1="498.2631" x2="177.921" y2="359.7631" gradientTransform="matrix(1 0 0 1.217 0.529 -324.0964)">
	<stop  offset="0.2282" style="stop-color:#FFFFFF"/>
	<stop  offset="0.999" style="stop-color:#FFFFFF;stop-opacity:0"/>
</linearGradient>
<rect x="71.6" y="113.7" class="st19" width="213.6" height="168.6"/>
</svg>
