<?xml version="1.0" encoding="utf-8"?>
<!-- Generator: Adobe Illustrator 22.1.0, SVG Export Plug-In . SVG Version: 6.00 Build 0)  -->
<svg version="1.1" id="Layer_1" xmlns="http://www.w3.org/2000/svg" xmlns:xlink="http://www.w3.org/1999/xlink" x="0px" y="0px"
	 viewBox="0 0 534 99.4" style="background:#f6f5f300;" xml:space="preserve">
<style type="text/css">
	.st0{fill:#FFFFFF;}
</style>
<path class="st0" d="M534.2,0.3H0.2V98C0,98.4,0,98.8,0.1,99.3h7c12.5-4.1,50.4-16.9,105.2-40.1c10.2-4.3,20.8-9,31-13.4
	C191.8,24.5,242,2.6,269.2,6.5c25,3.6,40.1,14.2,57.5,26.5C346.5,47,369,62.9,412,73.1c69.3,16.5,101.7,23.6,113.7,26.2h8.1
	c0-0.1,0.1-0.2,0.1-0.4c0-0.2,0-0.5,0-0.7l0.2,0V0.3z"/>
</svg>
