<?xml version="1.0" encoding="utf-8"?>
<!-- Generator: Adobe Illustrator 22.1.0, SVG Export Plug-In . SVG Version: 6.00 Build 0)  -->
<svg version="1.1" id="Layer_1" xmlns="http://www.w3.org/2000/svg" xmlns:xlink="http://www.w3.org/1999/xlink" x="0px" y="0px"
	 viewBox="0 0 534 99.4" style="background:#f6f5f300;" xml:space="preserve">
<style type="text/css">
	.st0{opacity:0.1;fill:url(#SVGID_1_);}
	.st1{fill:url(#SVGID_2_);}
</style>
<g>
	<linearGradient id="SVGID_1_" gradientUnits="userSpaceOnUse" x1="2.0002" y1="52.0045" x2="532.0002" y2="52.0045">
		<stop  offset="8.228662e-02" style="stop-color:#2FC6FC"/>
		<stop  offset="0.2189" style="stop-color:#30BFAD"/>
		<stop  offset="0.508" style="stop-color:#30B6A7"/>
		<stop  offset="0.6683" style="stop-color:#E08200"/>
		<stop  offset="0.9067" style="stop-color:#D81A00"/>
		<stop  offset="0.9915" style="stop-color:#C31900"/>
	</linearGradient>
	<path class="st0" d="M2,99.4c0,0,41.3-12.6,109.5-41.5C171.1,32.7,236,0.3,269.5,5.1c54,7.7,62.1,47.5,143,66.7
		C506.1,94.1,532,99.1,532,99.1"/>
	<g>
		<linearGradient id="SVGID_2_" gradientUnits="userSpaceOnUse" x1="0" y1="49.4066" x2="534.0012" y2="49.4066">
			<stop  offset="8.228662e-02" style="stop-color:#2FC6FC"/>
			<stop  offset="0.2189" style="stop-color:#30BFAD"/>
			<stop  offset="0.508" style="stop-color:#30B6A7"/>
			<stop  offset="0.6683" style="stop-color:#E08200"/>
			<stop  offset="0.9067" style="stop-color:#D81A00"/>
			<stop  offset="0.9915" style="stop-color:#C31900"/>
		</linearGradient>
		<path class="st1" d="M2,98.8c-0.9,0-1.6-0.6-1.9-1.4c-0.3-1.1,0.3-2.2,1.3-2.5c0.4-0.1,42-12.9,109.3-41.4
			c10.2-4.3,20.8-8.9,31-13.4C193,17.7,241.4-3.5,269.8,0.5c26,3.7,41.4,14.6,59.2,27.2c19.5,13.8,41.7,29.5,84,39.5
			c92.5,22,119.2,27.3,119.4,27.3c1.1,0.2,1.8,1.3,1.6,2.3s-1.3,1.8-2.3,1.6c-0.3-0.1-27-5.3-119.6-27.4C369,60.9,346.5,45,326.7,31
			C309.3,18.7,294.3,8,269.2,4.5C242,0.6,191.8,22.5,143.3,43.8c-10.2,4.5-20.8,9.1-31,13.4C44.8,85.8,3,98.6,2.6,98.7
			C2.4,98.8,2.2,98.8,2,98.8z"/>
	</g>
</g>
</svg>
